<svg width="219" height="217" viewBox="0 0 219 217" fill="none" xmlns="http://www.w3.org/2000/svg">
<g filter="url(#filter0_d_411_2)">
<path fill-rule="evenodd" clip-rule="evenodd" d="M46.1619 33.3531V74.8104L16.8469 104.125L26.317 113.596L28.6977 110.04L22.7832 104.125L50.3595 76.5492V37.5506H89.3581L116.934 9.97439L144.511 37.5506H183.509V52.7589C184.402 51.917 185.273 51.0512 186.118 50.1606C186.658 49.5915 187.187 49.0118 187.707 48.4235V33.3531H146.249L116.934 4.03809L87.6193 33.3531H46.1619Z" fill="#96989A"/>
<path fill-rule="evenodd" clip-rule="evenodd" d="M43.1937 30.3853V71.8426L13.8787 101.158L23.3488 110.628L25.7294 107.072L19.815 101.158L47.3912 73.5814V34.5828H86.3898L113.966 7.00662L141.542 34.5828H180.541V49.7911C181.434 48.9492 182.304 48.0834 183.15 47.1928C183.69 46.6238 184.219 46.044 184.738 45.4557V30.3853H143.281L113.966 1.07031L84.651 30.3853H43.1937Z" fill="#FEFEFE"/>
<path fill-rule="evenodd" clip-rule="evenodd" d="M142.259 95.6248C142.541 95.6248 142.818 95.6459 143.088 95.6862C141.197 96.0198 139.761 97.6708 139.761 99.6573C139.761 101.884 141.566 103.69 143.793 103.69C145.78 103.69 147.431 102.253 147.765 100.362C147.805 100.633 147.826 100.91 147.826 101.192C147.826 104.267 145.334 106.759 142.259 106.759C139.184 106.759 136.692 104.267 136.692 101.192C136.692 98.1173 139.184 95.6248 142.259 95.6248Z" fill="#FEFEFE"/>
<path fill-rule="evenodd" clip-rule="evenodd" d="M196.254 29.9976C196.536 29.9976 196.813 30.0187 197.084 30.0593C195.193 30.3928 193.756 32.0436 193.756 34.0303C193.756 36.2575 195.562 38.0628 197.789 38.0628C199.776 38.0628 201.427 36.6263 201.76 34.7353C201.8 35.0059 201.822 35.283 201.822 35.5649C201.822 38.6394 199.329 41.1319 196.254 41.1319C193.18 41.1319 190.687 38.6394 190.687 35.5649C190.687 32.4901 193.18 29.9976 196.254 29.9976Z" fill="#FEFEFE"/>
<path fill-rule="evenodd" clip-rule="evenodd" d="M184.457 82.7473C185.743 81.6603 187.206 80.6941 188.585 80.2114C189.59 79.8598 190.634 79.4954 191.675 79.173V61.9012L197.739 56.4309L203.802 61.9012V80.5503L203.797 80.7336L203.798 80.7506C203.809 83.3944 202.708 85.409 200.075 86.1556C198.45 86.6164 196.863 86.4449 195.261 86.7387C194.141 86.9444 193.052 87.2987 192.026 87.7922C187.546 89.9443 184.7 94.4629 184.7 99.4337C184.7 100.208 184.769 100.977 184.905 101.734C186.981 100.332 189.275 99.2757 191.698 98.6138C191.913 97.056 192.737 95.639 194.007 94.6764C195.076 93.867 196.268 93.583 197.579 93.4911C198.458 93.4294 199.396 93.472 200.261 93.3179C200.384 93.2961 200.505 93.2722 200.627 93.2462C202.127 91.6637 204.13 90.6565 206.298 90.4025C209.043 88.0793 210.984 84.6689 211.293 81.0688C211.421 79.5762 211.392 77.9984 211.399 76.4983C211.408 74.5389 211.426 72.5741 211.568 70.6191C211.729 68.4072 212.869 66.4679 214.39 64.9086C214.521 64.7741 214.66 64.6372 214.805 64.5004C210.985 61.6762 207.401 58.5933 204.118 55.135C201.821 52.7153 199.766 50.1844 197.739 47.5779C195.711 50.1844 193.656 52.7153 191.359 55.135C188.076 58.5933 184.492 61.6762 180.672 64.5004C180.817 64.6372 180.956 64.7741 181.087 64.9086C182.608 66.4679 183.748 68.4072 183.909 70.6191C184.051 72.5741 184.069 74.5387 184.078 76.4983C184.085 77.9984 184.056 79.5762 184.184 81.0688C184.229 81.5929 184.325 82.1672 184.457 82.7473ZM207.339 108.975C204.528 108.96 201.916 107.684 200.177 105.558C198.598 106.035 196.907 105.914 195.262 106.216C194.141 106.421 193.052 106.776 192.026 107.269C187.546 109.421 184.7 113.94 184.7 118.911C184.7 119.685 184.769 120.454 184.905 121.212C186.982 119.809 189.275 118.753 191.698 118.091C191.913 116.533 192.737 115.116 194.007 114.154C195.076 113.344 196.268 113.06 197.579 112.968C198.458 112.907 199.396 112.949 200.261 112.795C200.301 112.788 200.342 112.781 200.382 112.773C201.988 110.94 204.243 109.809 206.677 109.624C206.906 109.416 207.126 109.199 207.339 108.975ZM207.544 128.232C207.492 128.233 207.441 128.233 207.389 128.233C204.64 128.233 202.073 127.027 200.323 124.99C198.709 125.516 196.953 125.382 195.262 125.693C194.141 125.898 193.052 126.253 192.026 126.746C190.379 127.538 188.921 128.671 187.748 130.058C189.799 131.189 191.779 132.487 193.587 133.981C193.721 133.858 193.862 133.741 194.007 133.63C195.076 132.821 196.268 132.537 197.579 132.445C198.458 132.384 199.396 132.426 200.261 132.272C203.103 131.765 205.653 130.317 207.544 128.232Z" fill="#96989A"/>
<path fill-rule="evenodd" clip-rule="evenodd" d="M181.489 79.7798C182.775 78.6927 184.238 77.7266 185.617 77.2438C186.621 76.8923 187.666 76.5279 188.707 76.2055V58.9337L194.77 53.4634L200.834 58.9337V77.5828L200.829 77.7661L200.829 77.783C200.841 80.4269 199.74 82.4415 197.107 83.1881C195.481 83.6488 193.895 83.4773 192.293 83.7712C191.173 83.9769 190.084 84.3312 189.057 84.8247C184.578 86.9767 181.732 91.4954 181.732 96.4662C181.732 97.2401 181.8 98.0098 181.937 98.7669C184.013 97.3641 186.307 96.3081 188.73 95.6463C188.945 94.0884 189.768 92.6714 191.039 91.7088C192.108 90.8995 193.3 90.6155 194.611 90.5236C195.49 90.4619 196.428 90.5045 197.293 90.3504C197.415 90.3286 197.537 90.3046 197.659 90.2786C199.159 88.6962 201.161 87.6889 203.329 87.4349C206.075 85.1118 208.016 81.7014 208.325 78.1013C208.452 76.6087 208.424 75.0309 208.431 73.5308C208.44 71.5714 208.458 69.6065 208.6 67.6516C208.761 65.4397 209.901 63.5004 211.422 61.9411C211.553 61.8066 211.692 61.6697 211.837 61.5328C208.016 58.7087 204.433 55.6257 201.15 52.1675C198.853 49.7478 196.798 47.2168 194.77 44.6104C192.743 47.2168 190.688 49.7478 188.391 52.1675C185.108 55.6257 181.524 58.7087 177.704 61.5328C177.849 61.6697 177.988 61.8066 178.119 61.9411C179.64 63.5004 180.78 65.4397 180.941 67.6516C181.083 69.6065 181.101 71.5712 181.11 73.5308C181.117 75.0309 181.088 76.6087 181.216 78.1013C181.261 78.6254 181.357 79.1996 181.489 79.7798ZM204.371 106.008C201.559 105.993 198.947 104.717 197.208 102.591C195.63 103.067 193.939 102.946 192.293 103.248C191.173 103.454 190.084 103.808 189.057 104.302C184.578 106.454 181.732 110.972 181.732 115.943C181.732 116.717 181.801 117.487 181.937 118.244C184.013 116.841 186.307 115.785 188.73 115.123C188.945 113.566 189.768 112.149 191.039 111.186C192.108 110.377 193.3 110.092 194.611 110.001C195.49 109.939 196.428 109.982 197.293 109.827C197.333 109.82 197.373 109.813 197.413 109.805C199.02 107.972 201.275 106.842 203.709 106.656C203.937 106.448 204.158 106.232 204.371 106.008ZM204.576 125.265C204.524 125.265 204.472 125.266 204.421 125.266C201.671 125.266 199.105 124.059 197.355 122.023C195.74 122.549 193.984 122.415 192.293 122.725C191.173 122.931 190.084 123.285 189.057 123.779C187.41 124.57 185.952 125.704 184.78 127.09C186.831 128.221 188.811 129.519 190.618 131.013C190.753 130.89 190.894 130.773 191.039 130.663C192.108 129.854 193.3 129.569 194.611 129.478C195.49 129.416 196.428 129.459 197.293 129.305C200.135 128.798 202.685 127.349 204.576 125.265Z" fill="#FEFEFE"/>
<path fill-rule="evenodd" clip-rule="evenodd" d="M182.973 81.2647C184.259 80.1776 185.721 79.2115 187.1 78.7287C188.105 78.3771 189.15 78.0127 190.191 77.6903V60.4186L196.254 54.9482L202.318 60.4186V79.0677L202.313 79.2509L202.313 79.2679C202.325 81.9118 201.224 83.9264 198.591 84.673C196.965 85.1337 195.379 84.9622 193.777 85.2561C192.657 85.4618 191.568 85.8161 190.541 86.3095C186.062 88.4616 183.216 92.9803 183.216 97.951C183.216 98.7249 183.284 99.4946 183.421 100.252C185.497 98.849 187.791 97.793 190.214 97.1312C190.429 95.5733 191.252 94.1563 192.523 93.1937C193.592 92.3844 194.783 92.1004 196.095 92.0084C196.974 91.9467 197.912 91.9893 198.777 91.8353C198.899 91.8134 199.021 91.7895 199.142 91.7635C200.643 90.1811 202.645 89.1738 204.813 88.9198C207.559 86.5967 209.5 83.1863 209.809 79.5861C209.936 78.0935 209.908 76.5157 209.915 75.0156C209.924 73.0562 209.942 71.0914 210.084 69.1364C210.245 66.9245 211.385 64.9853 212.906 63.426C213.037 63.2914 213.176 63.1546 213.321 63.0177C209.5 60.1936 205.917 57.1106 202.634 53.6523C200.337 51.2326 198.282 48.7017 196.254 46.0952C194.226 48.7017 192.172 51.2326 189.875 53.6523C186.591 57.1106 183.008 60.1936 179.188 63.0177C179.333 63.1546 179.472 63.2914 179.603 63.426C181.123 64.9853 182.264 66.9245 182.425 69.1364C182.567 71.0914 182.585 73.056 182.594 75.0156C182.601 76.5157 182.572 78.0935 182.7 79.5861C182.745 80.1102 182.841 80.6845 182.973 81.2647ZM205.854 107.493C203.043 107.478 200.431 106.201 198.692 104.076C197.114 104.552 195.423 104.431 193.777 104.733C192.657 104.939 191.568 105.293 190.541 105.786C186.062 107.939 183.216 112.457 183.216 117.428C183.216 118.202 183.285 118.972 183.421 119.729C185.497 118.326 187.791 117.27 190.214 116.608C190.429 115.05 191.252 113.633 192.523 112.671C193.592 111.862 194.783 111.577 196.095 111.486C196.974 111.424 197.912 111.466 198.777 111.312C198.817 111.305 198.857 111.298 198.897 111.29C200.504 109.457 202.759 108.327 205.193 108.141C205.421 107.933 205.642 107.716 205.854 107.493ZM206.06 126.749C206.008 126.75 205.956 126.751 205.905 126.751C203.155 126.751 200.589 125.544 198.838 123.508C197.224 124.033 195.468 123.9 193.777 124.21C192.657 124.416 191.568 124.77 190.541 125.264C188.894 126.055 187.436 127.188 186.264 128.575C188.315 129.706 190.295 131.004 192.102 132.498C192.237 132.375 192.377 132.258 192.523 132.148C193.592 131.338 194.783 131.054 196.095 130.963C196.974 130.901 197.912 130.944 198.777 130.789C201.619 130.283 204.169 128.834 206.06 126.749Z" fill="url(#paint0_linear_411_2)"/>
<path fill-rule="evenodd" clip-rule="evenodd" d="M105.51 199.836C104.211 199.636 103.279 199.536 102.78 199.336C102.047 199.037 101.981 198.304 101.914 197.905C101.781 196.107 101.881 188.116 101.881 183.222C101.881 183.122 101.981 182.989 102.047 182.956C102.746 182.923 104.411 182.889 105.61 182.989C106.209 183.023 106.575 183.256 106.841 183.988C107.108 184.887 107.274 185.719 107.441 187.051C107.607 187.218 108.905 187.151 109.105 186.985C109.272 184.854 109.571 182.456 109.971 180.825C109.937 180.759 109.804 180.526 109.671 180.526C108.839 180.825 107.674 180.925 105.676 180.925H93.8237C92.7917 180.925 91.6595 180.825 90.7273 180.492C90.6274 180.459 90.3277 180.659 90.2945 180.725C90.1614 182.456 89.7952 185.32 89.5288 186.752C89.6287 187.018 91.0271 187.317 91.1935 187.184C91.6595 185.853 92.0257 184.954 92.392 184.221C92.8916 183.222 93.3909 183.056 93.9236 183.023C94.9557 182.989 96.587 182.989 97.1863 183.056C97.2862 183.056 97.3861 183.255 97.3861 183.355C97.3861 188.782 97.4192 193.876 97.253 197.405C97.1863 198.77 96.9533 199.237 95.921 199.47C95.455 199.57 94.5894 199.703 93.5905 199.836C93.3575 200.002 93.3244 201.134 93.5905 201.334C94.6228 201.334 96.6202 201.234 99.4836 201.234C102.08 201.234 104.145 201.334 105.41 201.334C105.61 201.101 105.709 200.035 105.51 199.836ZM184.681 199.836C184.548 200.069 184.548 201.101 184.681 201.334C185.713 201.334 187.278 201.234 188.81 201.234C191.107 201.234 192.638 201.334 193.371 201.334C193.537 201.134 193.604 200.002 193.471 199.836C192.871 199.736 192.305 199.636 191.739 199.503C190.907 199.303 190.774 198.97 190.774 198.404C190.774 197.871 191.273 196.506 191.873 194.775C191.939 194.642 192.139 194.442 192.272 194.442C192.738 194.409 193.238 194.409 194.802 194.409C195.834 194.409 197.199 194.409 197.832 194.442C197.998 194.442 198.165 194.542 198.232 194.675C198.664 195.674 199.43 197.705 199.597 198.704C199.663 198.87 199.63 199.17 199.297 199.37C198.931 199.57 198.265 199.703 197.499 199.836C197.333 200.002 197.399 201.101 197.532 201.334C198.598 201.334 200.329 201.234 202.726 201.234C205.356 201.234 206.788 201.334 207.653 201.334C207.82 201.167 207.953 200.035 207.787 199.836C205.123 199.436 204.957 199.17 203.792 196.44C202.526 193.41 199.763 185.975 198.664 183.084C198.431 182.456 198.198 181.591 197.998 180.925C197.566 180.958 196.999 180.958 196.267 180.958C195.635 180.958 195.035 180.958 194.569 180.925C194.469 181.591 194.07 182.884 193.737 183.683C192.938 186.008 190.408 192.611 188.61 196.839C187.611 199.103 187.145 199.436 184.681 199.836ZM195.102 185.742C195.768 187.467 197.033 191.019 197.333 191.884C197.333 191.945 197.266 192.078 197.199 192.078C196.9 192.112 196.167 192.145 195.135 192.145C194.17 192.145 193.337 192.145 192.971 192.112C192.838 192.078 192.838 191.945 192.838 191.851C193.437 190.092 194.369 187.473 194.935 185.786C195.002 185.708 195.069 185.742 195.102 185.742ZM155.549 182.357C156.515 182.49 156.848 182.556 157.414 182.756C158.146 183.022 158.579 183.822 158.945 184.787C160.144 188.183 163.107 197.638 163.939 201.534C164.605 201.4 166.037 201.434 166.703 201.5C167.535 198.537 169.932 191.978 171.231 188.516C171.264 188.483 171.397 188.449 171.43 188.483C172.362 190.647 175.425 199.17 176.125 201.6C176.724 201.467 178.322 201.467 178.955 201.5C180.353 197.139 183.116 188.882 184.781 184.721C185.247 183.522 185.813 182.956 186.612 182.723C187.078 182.556 187.378 182.49 188.044 182.357C188.177 182.124 188.144 180.992 188.044 180.825C187.378 180.825 186.479 180.925 183.616 180.925C181.552 180.925 180.12 180.825 179.321 180.825C179.188 180.925 179.055 182.19 179.288 182.357C180.187 182.49 180.786 182.556 181.418 182.756C182.284 183.022 182.517 183.589 182.251 184.787C181.884 186.718 180.22 192.178 179.154 195.275C179.121 195.374 178.988 195.374 178.955 195.341C178.056 193.144 174.86 184.787 174.027 181.99C173.394 182.09 171.863 182.124 171.164 181.99C170.265 185.286 168.301 191.446 167.069 194.509C167.002 194.575 166.902 194.609 166.869 194.542C165.97 191.779 164.505 186.885 163.673 183.755C163.606 183.422 163.706 182.956 164.139 182.79C164.605 182.656 165.205 182.49 165.87 182.357C166.07 182.124 166.07 180.992 165.87 180.825C164.472 180.859 163.606 180.925 160.876 180.925C158.413 180.925 157.181 180.825 155.683 180.825C155.449 180.958 155.449 182.19 155.549 182.357ZM162.142 205.662C162.275 205.296 162.075 204.297 161.909 204.031C160.976 204.463 159.478 204.796 158.013 204.763C156.248 204.763 154.717 204.23 151.621 202.665C150.289 202 148.724 201.167 147.659 200.868C149.423 200.169 151.022 199.137 152.12 197.871C153.685 196.073 154.517 193.577 154.517 190.713C154.517 185.253 150.922 180.359 143.963 180.359C140.501 180.359 136.605 181.724 134.308 184.854C133.043 186.618 132.444 188.816 132.444 191.146C132.444 194.609 133.642 197.938 136.639 199.969C138.137 201.001 139.835 201.5 141.799 201.9C142.698 202.033 143.73 202.532 144.529 203.065C146.627 204.497 148.192 205.862 150.289 207.06C151.821 207.926 153.385 208.326 154.717 208.326C156.681 208.326 159.844 207.626 162.142 205.662ZM142.765 182.19C147.859 182.19 149.423 187.384 149.423 191.879C149.423 196.373 147.859 199.969 144.896 199.969C139.968 199.969 137.571 195.707 137.571 190.048C137.571 185.686 139.069 182.19 142.765 182.19ZM108.34 199.836C108.206 200.069 108.206 201.101 108.34 201.334C109.372 201.334 110.936 201.234 112.468 201.234C114.765 201.234 116.297 201.334 117.029 201.334C117.196 201.134 117.262 200.002 117.129 199.836C116.53 199.736 115.964 199.636 115.398 199.503C114.565 199.303 114.432 198.97 114.432 198.404C114.432 197.871 114.932 196.506 115.531 194.775C115.597 194.642 115.797 194.442 115.93 194.442C116.396 194.409 116.896 194.409 118.461 194.409C119.493 194.409 120.858 194.409 121.49 194.442C121.657 194.442 121.823 194.542 121.89 194.675C122.323 195.674 123.089 197.705 123.255 198.704C123.322 198.87 123.288 199.17 122.955 199.37C122.589 199.57 121.923 199.703 121.158 199.836C120.991 200.002 121.058 201.101 121.191 201.334C122.256 201.334 123.987 201.234 126.384 201.234C129.015 201.234 130.446 201.334 131.312 201.334C131.478 201.167 131.612 200.035 131.445 199.836C128.782 199.436 128.615 199.17 127.45 196.44C126.185 193.41 123.421 185.975 122.323 183.084C122.09 182.456 121.857 181.591 121.657 180.925C121.224 180.958 120.658 180.958 119.926 180.958C119.293 180.958 118.694 180.958 118.228 180.925C118.128 181.591 117.728 182.884 117.395 183.683C116.596 186.008 114.066 192.611 112.268 196.839C111.269 199.103 110.803 199.436 108.34 199.836ZM118.76 185.742C119.426 187.467 120.691 191.019 120.991 191.884C120.991 191.945 120.925 192.078 120.858 192.078C120.558 192.112 119.826 192.145 118.794 192.145C117.828 192.145 116.996 192.145 116.629 192.112C116.496 192.078 116.496 191.945 116.496 191.851C117.096 190.092 118.028 187.473 118.594 185.786C118.66 185.708 118.727 185.742 118.76 185.742Z" fill="url(#paint1_linear_411_2)"/>
<path fill-rule="evenodd" clip-rule="evenodd" d="M108.532 186.871C108.642 186.869 108.763 186.863 108.873 186.853C109.01 185.218 109.204 183.484 109.54 181.874C108.437 182.094 107.147 182.093 106.121 182.093H94.2692C93.3362 182.093 92.3297 182.019 91.4164 181.771C91.275 183.427 91.0615 185.179 90.7771 186.815C90.8894 186.847 91.0151 186.877 91.131 186.899C91.4423 186.033 91.781 185.164 92.191 184.344C92.6572 183.412 93.2518 182.814 94.3239 182.747L94.3458 182.746C95.378 182.713 96.6718 182.67 97.6932 182.782C98.1886 182.821 98.5542 183.324 98.5542 183.801C98.5542 188.469 98.6419 193.227 98.4201 197.885C98.3518 199.322 98.0733 200.276 96.5235 200.621C95.8971 200.76 95.2252 200.853 94.575 200.939C94.5729 200.977 94.5716 201.016 94.5716 201.055C96.3534 201.04 98.1405 200.957 99.929 200.957C101.73 200.957 103.529 201.04 105.325 201.055C105.33 201.012 105.334 200.968 105.337 200.925C104.548 200.82 103.563 200.699 102.953 200.452C102.035 200.08 101.794 199.353 101.647 198.469L101.641 198.437L101.639 198.404C101.58 197.613 101.582 196.785 101.575 195.992C101.564 194.718 101.566 193.443 101.57 192.168C101.579 189.335 101.603 186.501 101.603 183.668C101.603 183.305 101.845 182.917 102.17 182.755L102.306 182.687L102.458 182.68C103.639 182.624 104.937 182.617 106.105 182.714C107.081 182.768 107.636 183.28 107.966 184.187L107.973 184.208L107.98 184.229C108.24 185.107 108.405 185.975 108.532 186.871ZM192.678 194.166C193.517 194.107 194.407 194.132 195.248 194.132C196.255 194.132 197.297 194.114 198.301 194.165C198.723 194.174 199.134 194.418 199.323 194.798L199.332 194.816L199.34 194.834C199.834 195.973 200.527 197.746 200.744 198.969C200.921 199.541 200.617 200.133 200.114 200.435L200.088 200.45C199.679 200.673 199.094 200.807 198.569 200.905C198.57 200.953 198.572 201.004 198.575 201.053C200.103 201.035 201.636 200.957 203.172 200.957C204.221 200.957 205.27 200.975 206.32 201.007C206.732 201.02 207.148 201.04 207.562 201.05C207.568 201.003 207.573 200.955 207.577 200.908C205.012 200.456 204.682 199.798 203.571 197.166C202.635 194.949 201.783 192.666 200.93 190.414C200.093 188.206 199.27 185.993 198.434 183.785C198.229 183.245 198.07 182.68 197.91 182.12C197.51 182.131 197.107 182.127 196.713 182.127C196.345 182.127 195.973 182.129 195.602 182.12C195.42 182.883 195.124 183.745 194.858 184.385C194.182 186.352 193.425 188.316 192.675 190.257C191.728 192.706 190.758 195.159 189.719 197.571C188.704 199.928 188.028 200.488 185.751 200.907C185.75 200.954 185.749 201.003 185.749 201.051C186.916 201.029 188.085 200.957 189.255 200.957C190.219 200.957 191.182 200.976 192.146 201.008C192.512 201.019 192.883 201.037 193.252 201.048C193.256 201 193.259 200.951 193.261 200.903C192.844 200.83 192.429 200.75 192.018 200.651C191.004 200.41 190.496 199.899 190.496 198.85C190.496 197.979 191.333 195.857 191.635 194.985L191.651 194.94L191.671 194.898C191.854 194.533 192.258 194.187 192.678 194.166ZM195.592 185.465H196.043L196.222 185.927C197.005 187.957 197.749 190.037 198.461 192.094L198.501 192.208V192.33C198.501 192.768 198.161 193.205 197.71 193.244C197.031 193.319 196.262 193.313 195.581 193.313C194.866 193.313 194.059 193.341 193.351 193.277L193.295 193.272L193.24 193.258C192.768 193.14 192.561 192.746 192.561 192.297V192.177L192.599 192.064C193.289 190.04 194.016 188.029 194.696 186.002L194.741 185.868L194.832 185.761C195.03 185.531 195.299 185.432 195.592 185.465ZM177.087 201.245C177.651 201.196 178.322 201.191 178.88 201.204C179.737 198.544 180.625 195.891 181.533 193.248C182.491 190.46 183.466 187.639 184.555 184.899C185 183.78 185.63 182.841 186.834 182.481C187.179 182.359 187.51 182.273 187.853 182.197C187.855 182.136 187.855 182.073 187.854 182.01C187.611 182.02 187.367 182.034 187.126 182.043C186.105 182.081 185.083 182.093 184.061 182.093C182.817 182.093 181.574 182.019 180.338 181.998C180.334 182.052 180.331 182.106 180.329 182.158C180.919 182.243 181.509 182.335 182.078 182.512C183.499 182.954 183.695 184.069 183.404 185.379C183.103 186.965 182.568 188.685 182.102 190.246C181.532 192.157 180.932 194.07 180.283 195.955C180.085 196.531 179.321 196.729 178.889 196.298L178.786 196.195L178.731 196.061C177.859 193.927 177.043 191.748 176.235 189.59C175.458 187.515 174.62 185.347 173.956 183.218C173.39 183.259 172.71 183.265 172.141 183.226C171.599 185.163 170.994 187.095 170.374 189.006C169.701 191.081 168.998 193.201 168.185 195.224L168.13 195.361L168.026 195.465C167.625 195.867 166.94 195.854 166.668 195.311L166.644 195.263L166.627 195.211C165.471 191.656 164.381 187.999 163.42 184.387L163.414 184.365L163.41 184.343C163.263 183.607 163.602 182.839 164.325 182.561L164.355 182.549L164.386 182.541C164.835 182.412 165.283 182.291 165.737 182.188C165.741 182.13 165.743 182.069 165.743 182.008C164.267 182.047 162.806 182.093 161.322 182.093C159.765 182.093 158.213 182.013 156.662 181.996C156.658 182.053 156.656 182.111 156.655 182.168C157.146 182.246 157.604 182.343 158.103 182.522C159.164 182.903 159.693 183.992 160.069 184.985C161.026 187.693 161.884 190.468 162.716 193.209C163.503 195.799 164.344 198.525 164.949 201.183C165.482 201.145 166.087 201.152 166.616 201.181C167.186 199.244 167.885 197.295 168.556 195.4C169.349 193.162 170.166 190.931 170.999 188.708L171.054 188.561L171.165 188.451C171.481 188.135 172.061 188.092 172.387 188.418L172.484 188.515L172.539 188.643C173.439 190.732 174.222 192.999 174.991 195.143C175.703 197.133 176.472 199.208 177.087 201.245ZM161.909 205.731C161.906 205.646 161.895 205.543 161.879 205.436C160.787 205.794 159.522 205.956 158.451 205.931C156.058 205.932 153.838 204.813 151.741 203.757C150.596 203.18 149.127 202.352 147.909 202.009L145.848 201.43L147.838 200.642C149.371 200.034 150.93 199.097 152.02 197.843C153.618 196.005 154.24 193.552 154.24 191.159C154.24 185.319 150.203 181.528 144.409 181.528C140.991 181.528 137.396 182.897 135.338 185.725C134.104 187.42 133.612 189.519 133.612 191.592C133.612 194.843 134.722 197.93 137.491 199.818C138.958 200.817 140.65 201.283 142.371 201.634C143.402 201.791 144.521 202.33 145.38 202.913C147.299 204.214 149.073 205.73 151.092 206.878C152.306 207.569 153.755 208.049 155.163 208.049C157.437 208.049 160.108 207.167 161.909 205.731ZM143.21 181.913C148.88 181.913 150.592 187.621 150.592 192.324C150.592 194.323 150.291 196.597 149.357 198.389C148.53 199.975 147.198 201.137 145.341 201.137C139.385 201.137 137.294 195.64 137.294 190.493C137.294 186.651 138.535 181.913 143.21 181.913ZM116.337 194.166C117.175 194.107 118.066 194.132 118.906 194.132C119.913 194.132 120.955 194.114 121.959 194.165C122.381 194.174 122.792 194.418 122.982 194.798L122.991 194.816L122.998 194.834C123.492 195.973 124.186 197.746 124.403 198.969C124.579 199.541 124.275 200.133 123.772 200.435L123.747 200.45C123.338 200.673 122.753 200.807 122.227 200.905C122.228 200.953 122.23 201.004 122.233 201.053C123.762 201.035 125.295 200.957 126.83 200.957C127.88 200.957 128.929 200.975 129.978 201.007C130.39 201.02 130.806 201.04 131.221 201.05C131.226 201.003 131.231 200.955 131.235 200.908C128.67 200.456 128.34 199.798 127.23 197.166C126.294 194.949 125.442 192.666 124.588 190.414C123.751 188.206 122.928 185.993 122.092 183.785C121.888 183.245 121.728 182.68 121.568 182.12C121.168 182.131 120.765 182.127 120.371 182.127C120.004 182.127 119.631 182.129 119.26 182.12C119.078 182.883 118.782 183.745 118.517 184.385C117.84 186.352 117.083 188.316 116.333 190.257C115.387 192.706 114.416 195.159 113.377 197.571C112.362 199.928 111.686 200.488 109.409 200.907C109.408 200.954 109.408 201.003 109.408 201.051C110.574 201.029 111.743 200.957 112.913 200.957C113.878 200.957 114.841 200.976 115.804 201.008C116.171 201.019 116.541 201.037 116.91 201.048C116.914 201 116.917 200.951 116.919 200.903C116.503 200.83 116.087 200.75 115.676 200.651C114.662 200.41 114.155 199.899 114.155 198.85C114.155 197.979 114.991 195.857 115.293 194.985L115.309 194.94L115.33 194.898C115.512 194.533 115.917 194.187 116.337 194.166ZM119.25 185.465H119.701L119.88 185.927C120.663 187.957 121.408 190.037 122.119 192.094L122.159 192.208V192.33C122.159 192.768 121.819 193.205 121.368 193.244C120.689 193.319 119.921 193.313 119.239 193.313C118.525 193.313 117.717 193.341 117.01 193.277L116.954 193.272L116.899 193.258C116.427 193.14 116.219 192.746 116.219 192.297V192.177L116.258 192.064C116.947 190.04 117.674 188.029 118.354 186.002L118.399 185.868L118.491 185.761C118.688 185.531 118.958 185.432 119.25 185.465Z" fill="#96989A"/>
<path fill-rule="evenodd" clip-rule="evenodd" d="M107.641 185.98C107.752 185.978 107.872 185.972 107.982 185.962C108.119 184.327 108.314 182.594 108.649 180.983C107.546 181.203 106.256 181.203 105.231 181.203H93.3785C92.4455 181.203 91.4391 181.128 90.5258 180.88C90.3843 182.536 90.1709 184.288 89.8865 185.924C89.9988 185.956 90.1245 185.986 90.2404 186.009C90.5516 185.142 90.8904 184.273 91.3003 183.453C91.7665 182.521 92.3612 181.923 93.4333 181.856L93.4551 181.855C94.4874 181.822 95.7812 181.779 96.8026 181.891C97.2979 181.93 97.6636 182.433 97.6636 182.91C97.6636 187.578 97.7513 192.336 97.5294 196.995C97.4612 198.431 97.1827 199.385 95.6328 199.73C95.0065 199.869 94.3346 199.962 93.6844 200.048C93.6823 200.086 93.681 200.125 93.681 200.164C95.4628 200.149 97.2499 200.066 99.0384 200.066C100.839 200.066 102.638 200.149 104.434 200.164C104.439 200.121 104.443 200.077 104.446 200.034C103.657 199.929 102.672 199.808 102.063 199.561C101.145 199.189 100.903 198.463 100.756 197.578L100.75 197.546L100.748 197.513C100.689 196.723 100.692 195.895 100.685 195.102C100.674 193.827 100.676 192.552 100.68 191.277C100.688 188.444 100.713 185.61 100.713 182.777C100.713 182.415 100.955 182.026 101.279 181.864L101.416 181.796L101.568 181.789C102.749 181.733 104.046 181.726 105.214 181.823C106.19 181.877 106.746 182.389 107.075 183.296L107.083 183.317L107.089 183.338C107.349 184.216 107.515 185.084 107.641 185.98ZM191.788 193.275C192.626 193.216 193.517 193.241 194.357 193.241C195.364 193.241 196.406 193.223 197.41 193.275C197.832 193.284 198.243 193.527 198.433 193.907L198.441 193.925L198.449 193.943C198.943 195.082 199.637 196.855 199.854 198.078C200.03 198.65 199.726 199.243 199.223 199.544L199.198 199.559C198.789 199.782 198.204 199.916 197.678 200.014C197.679 200.062 197.681 200.113 197.684 200.163C199.213 200.145 200.746 200.066 202.281 200.066C203.331 200.066 204.38 200.084 205.429 200.117C205.841 200.13 206.257 200.149 206.672 200.159C206.677 200.112 206.682 200.064 206.686 200.017C204.121 199.565 203.791 198.907 202.681 196.275C201.745 194.058 200.892 191.775 200.039 189.523C199.202 187.315 198.379 185.102 197.543 182.894C197.339 182.354 197.179 181.789 197.019 181.229C196.619 181.24 196.216 181.236 195.822 181.236C195.455 181.236 195.082 181.238 194.711 181.229C194.529 181.992 194.233 182.854 193.968 183.494C193.291 185.461 192.534 187.425 191.784 189.366C190.838 191.816 189.867 194.268 188.828 196.68C187.813 199.037 187.137 199.597 184.861 200.016C184.859 200.063 184.858 200.112 184.859 200.16C186.025 200.138 187.194 200.066 188.364 200.066C189.329 200.066 190.292 200.085 191.255 200.117C191.622 200.129 191.992 200.147 192.361 200.157C192.365 200.109 192.368 200.06 192.37 200.012C191.954 199.939 191.538 199.859 191.127 199.761C190.113 199.519 189.606 199.008 189.606 197.959C189.606 197.088 190.442 194.966 190.744 194.094L190.76 194.049L190.781 194.007C190.963 193.642 191.368 193.296 191.788 193.275ZM194.701 184.574H195.152L195.331 185.036C196.114 187.066 196.858 189.146 197.57 191.203L197.61 191.318V191.439C197.61 191.877 197.27 192.314 196.819 192.353C196.14 192.428 195.372 192.423 194.69 192.423C193.976 192.423 193.168 192.451 192.46 192.386L192.404 192.381L192.35 192.368C191.878 192.249 191.67 191.855 191.67 191.406V191.286L191.709 191.173C192.398 189.149 193.125 187.138 193.805 185.111L193.85 184.977L193.942 184.87C194.139 184.64 194.409 184.541 194.701 184.574ZM176.196 200.354C176.76 200.305 177.431 200.3 177.989 200.313C178.846 197.653 179.735 195 180.643 192.357C181.6 189.569 182.575 186.748 183.664 184.008C184.109 182.889 184.739 181.95 185.943 181.59C186.288 181.469 186.62 181.382 186.963 181.306C186.964 181.246 186.964 181.182 186.963 181.119C186.72 181.13 186.476 181.143 186.236 181.152C185.214 181.19 184.192 181.203 183.171 181.203C181.926 181.203 180.684 181.128 179.447 181.108C179.443 181.161 179.44 181.215 179.438 181.267C180.028 181.352 180.619 181.444 181.188 181.621C182.608 182.063 182.804 183.178 182.513 184.488C182.212 186.074 181.678 187.794 181.211 189.356C180.641 191.266 180.041 193.179 179.393 195.064C179.195 195.64 178.43 195.838 177.999 195.407L177.896 195.304L177.841 195.17C176.968 193.036 176.152 190.857 175.344 188.699C174.567 186.624 173.729 184.456 173.065 182.328C172.499 182.369 171.819 182.374 171.25 182.335C170.708 184.272 170.103 186.204 169.484 188.115C168.81 190.19 168.108 192.31 167.294 194.333L167.239 194.47L167.135 194.574C166.734 194.976 166.049 194.963 165.778 194.42L165.754 194.372L165.737 194.321C164.58 190.765 163.49 187.108 162.529 183.496L162.524 183.474L162.519 183.452C162.372 182.716 162.712 181.948 163.434 181.67L163.465 181.658L163.495 181.65C163.944 181.521 164.392 181.401 164.846 181.297C164.85 181.239 164.852 181.178 164.852 181.117C163.376 181.156 161.915 181.203 160.431 181.203C158.874 181.203 157.323 181.122 155.771 181.106C155.768 181.162 155.765 181.22 155.764 181.277C156.255 181.355 156.714 181.452 157.213 181.631C158.274 182.012 158.802 183.101 159.179 184.094C160.135 186.803 160.994 189.577 161.826 192.318C162.613 194.909 163.453 197.634 164.058 200.292C164.591 200.254 165.196 200.261 165.726 200.29C166.296 198.353 166.994 196.404 167.666 194.509C168.458 192.271 169.275 190.04 170.109 187.817L170.164 187.671L170.275 187.56C170.59 187.244 171.171 187.201 171.496 187.527L171.594 187.625L171.649 187.752C172.549 189.841 173.331 192.108 174.1 194.252C174.813 196.242 175.581 198.318 176.196 200.354ZM161.018 204.84C161.015 204.755 161.005 204.652 160.989 204.545C159.897 204.903 158.631 205.065 157.56 205.041C155.167 205.041 152.948 203.922 150.851 202.866C149.705 202.289 148.237 201.461 147.018 201.118L144.958 200.539L146.948 199.751C148.481 199.143 150.039 198.206 151.13 196.952C152.728 195.114 153.35 192.661 153.35 190.268C153.35 184.428 149.312 180.637 143.518 180.637C140.101 180.637 136.506 182.006 134.447 184.834C133.213 186.529 132.721 188.628 132.721 190.701C132.721 193.952 133.831 197.039 136.6 198.927C138.068 199.927 139.759 200.392 141.48 200.743C142.511 200.901 143.63 201.439 144.49 202.022C146.408 203.323 148.183 204.839 150.201 205.987C151.416 206.678 152.864 207.158 154.272 207.158C156.547 207.158 159.218 206.276 161.018 204.84ZM142.32 181.022C147.989 181.022 149.701 186.731 149.701 191.434C149.701 193.432 149.401 195.706 148.466 197.498C147.639 199.085 146.308 200.247 144.45 200.247C138.494 200.247 136.403 194.749 136.403 189.602C136.403 185.76 137.645 181.022 142.32 181.022ZM115.446 193.275C116.285 193.216 117.175 193.241 118.015 193.241C119.022 193.241 120.065 193.223 121.069 193.275C121.49 193.284 121.901 193.527 122.091 193.907L122.1 193.925L122.108 193.943C122.601 195.082 123.295 196.855 123.512 198.078C123.689 198.65 123.384 199.243 122.882 199.544L122.856 199.559C122.447 199.782 121.862 199.916 121.337 200.014C121.338 200.062 121.34 200.113 121.343 200.163C122.871 200.145 124.404 200.066 125.939 200.066C126.989 200.066 128.038 200.084 129.087 200.117C129.5 200.13 129.915 200.149 130.33 200.159C130.336 200.112 130.341 200.064 130.345 200.017C127.78 199.565 127.449 198.907 126.339 196.275C125.403 194.058 124.551 191.775 123.697 189.523C122.86 187.315 122.037 185.102 121.202 182.894C120.997 182.354 120.838 181.789 120.677 181.229C120.278 181.24 119.875 181.236 119.48 181.236C119.113 181.236 118.74 181.238 118.369 181.229C118.188 181.992 117.892 182.854 117.626 183.494C116.949 185.461 116.192 187.425 115.442 189.366C114.496 191.816 113.525 194.268 112.487 196.68C111.471 199.037 110.795 199.597 108.519 200.016C108.517 200.063 108.517 200.112 108.517 200.16C109.684 200.138 110.853 200.066 112.023 200.066C112.987 200.066 113.95 200.085 114.914 200.117C115.28 200.129 115.65 200.147 116.019 200.157C116.023 200.109 116.026 200.06 116.029 200.012C115.612 199.939 115.197 199.859 114.785 199.761C113.772 199.519 113.264 199.008 113.264 197.959C113.264 197.088 114.101 194.966 114.403 194.094L114.418 194.049L114.439 194.007C114.622 193.642 115.026 193.296 115.446 193.275ZM118.359 184.574H118.811L118.989 185.036C119.773 187.066 120.517 189.146 121.229 191.203L121.268 191.318V191.439C121.268 191.877 120.928 192.314 120.478 192.353C119.799 192.428 119.03 192.423 118.348 192.423C117.634 192.423 116.827 192.451 116.119 192.386L116.063 192.381L116.008 192.368C115.536 192.249 115.328 191.855 115.328 191.406V191.286L115.367 191.173C116.057 189.149 116.783 187.138 117.464 185.111L117.508 184.977L117.6 184.87C117.797 184.64 118.067 184.541 118.359 184.574Z" fill="#FEFEFE"/>
<path fill-rule="evenodd" clip-rule="evenodd" d="M54.0914 124.356L50.0033 127.241L32.5928 110.263L19.2943 130.127C17.587 132.628 16.7214 134.672 16.6731 136.331C16.6253 138.111 17.2264 140.035 18.4287 142.103L39.2299 164.659C40.0718 166.054 40.4805 167.593 40.4805 169.228C40.4805 171.729 39.3982 174.23 37.1859 176.779C34.18 180.242 29.8515 182.022 24.2242 182.118C20.6412 182.166 17.3226 181.204 14.2205 179.232C10.7816 177.02 9.07425 174.182 9.07425 170.719C9.07425 165.958 10.7335 163.601 14.0761 163.601C15.567 163.601 16.6973 164.731 17.4428 166.968C18.5249 164.443 18.5729 162.206 17.587 160.282C16.1442 158.07 14.485 156.699 12.6572 156.122C13.3788 154.848 13.6433 153.429 13.4991 151.818C13.3547 150.086 12.4891 148.643 10.9018 147.465C9.31459 146.287 7.63122 145.662 5.89978 145.565C5.2025 145.518 4.55329 145.638 4 145.902C6.11639 148.86 7.22276 151.601 7.31868 154.078C7.34282 155.69 6.8378 158.094 5.80385 161.341C4.74555 164.587 4.24076 167.112 4.28882 168.94C4.36082 175.048 7.10227 180.026 12.441 183.873C17.3948 187.408 22.9736 189.02 29.2262 188.755C34.8053 188.514 40.0235 186.182 44.8572 181.781C49.4502 177.597 51.7588 172.836 51.7588 167.545C51.7588 165.188 51.35 163.072 50.4844 161.196L50.1475 160.427L31.126 139.65C30.8852 139.409 30.5007 138.88 29.9955 138.087C29.7554 137.389 29.6349 136.716 29.6349 136.115C29.6349 135.225 29.8996 134.335 30.4044 133.445L34.1559 128.299L54.0914 147.177V124.356ZM179.462 148.974C179.462 146.921 177.435 145.443 174.422 144.06C170.672 142.339 166.876 141.381 161.767 141.103C157.412 140.927 152.906 140.421 148.681 139.907L147.115 139.717L145.643 139.394C145.086 139.271 144.538 139.141 143.998 139.004C143.458 139.141 142.91 139.271 142.353 139.394L140.881 139.717L139.315 139.907C135.09 140.421 130.584 140.927 126.23 141.103C121.12 141.381 116.964 142.339 113.214 144.06C110.201 145.443 108.174 146.921 108.174 148.974V149.736H166.421V158.476H159.623H142.59H125.558H95.4736V148.974C95.4736 144.687 98.6174 140.931 104.825 137.704C110.635 134.633 117.56 132.865 125.558 132.401C127.668 132.313 130.692 131.981 134.671 131.429C137.138 130.81 139.805 129.573 142.59 127.672C145.376 129.573 148.042 130.81 150.509 131.429C154.489 131.981 157.513 132.313 159.623 132.401C167.621 132.865 174.545 134.633 180.355 137.704C186.563 140.931 189.707 144.687 189.707 148.974V151.906V158.476V165.205H192.604H202.675V150.974C202.675 148.168 201.482 146.577 199.117 146.246C203.117 144.898 206.012 143.219 207.779 141.185C209.393 139.33 210.807 136.302 212.066 132.059V188.849C209.127 186.772 207.064 184.73 205.835 182.75C204.788 181.062 203.714 178.375 202.675 174.662H192.604H179.933H123.865H91.6319H86.9554C86.9554 178.684 85.5854 182.043 82.8674 184.761C80.1495 187.479 76.7907 188.849 72.7691 188.849C68.8138 188.849 65.5048 187.473 62.8475 184.739C60.1797 181.993 59.0322 180.317 59.0322 176.339C59.0322 178.593 59.8206 179.038 61.7426 181.071C63.665 183.104 65.7422 184.12 67.974 184.12C70.8246 184.12 73.1173 183.253 74.8462 181.513C76.5642 179.783 77.4317 177.513 77.4317 174.662H58.8909V165.205C58.8909 155.836 67.1067 150.641 77.4317 149.803C78.8196 149.691 80.7903 149.339 83.3315 148.5C84.3701 147.77 85.5633 146.621 86.9554 145.074V165.205H91.6319H123.865H179.495V158.476V151.906C179.495 150.916 179.462 149.95 179.462 148.974ZM205.905 92.6072C208.979 92.6072 211.472 95.0997 211.472 98.1745C211.472 101.249 208.979 103.742 205.905 103.742C202.83 103.742 200.338 101.249 200.338 98.1745C200.338 95.0997 202.83 92.6072 205.905 92.6072ZM205.905 111.865C208.979 111.865 211.472 114.357 211.472 117.432C211.472 120.507 208.979 122.999 205.905 122.999C202.83 122.999 200.338 120.507 200.338 117.432C200.338 114.357 202.83 111.865 205.905 111.865ZM142.259 109.827C145.255 109.827 147.685 112.257 147.685 115.254C147.685 116.108 147.487 116.917 147.135 117.636C145.747 116.686 144.068 116.13 142.259 116.13C140.449 116.13 138.77 116.686 137.382 117.636C137.03 116.917 136.832 116.108 136.832 115.254C136.832 112.257 139.262 109.827 142.259 109.827ZM142.259 118.232C147.034 118.232 150.905 122.102 150.905 126.877C150.905 127.682 150.794 128.46 150.589 129.199C149.612 129.032 148.431 128.772 147.04 128.424C145.67 127.805 144.189 126.568 142.642 124.667C141.096 126.568 139.615 127.805 138.245 128.424C136.484 128.864 135.059 129.164 133.961 129.313C133.735 128.54 133.613 127.723 133.613 126.877C133.613 122.102 137.484 118.232 142.259 118.232ZM77.4317 165.205V159.261C73.0785 159.261 67.8178 161.249 67.8178 165.205H77.4317Z" fill="url(#paint2_linear_411_2)"/>
<path fill-rule="evenodd" clip-rule="evenodd" d="M52.6776 129.293L50.5344 130.806L33.6986 114.389L21.8388 132.103C20.9639 133.385 19.6392 135.539 19.5941 137.146C19.5515 138.671 20.1993 140.248 20.9425 141.567L41.7263 164.105L41.8398 164.293C42.8876 166.029 43.4023 167.957 43.4023 169.983C43.4023 173.417 41.7787 176.418 39.5771 178.955C35.8229 183.28 30.6076 184.952 25.0122 185.04C20.9669 185.103 17.2128 183.992 13.806 181.813C11.7507 180.498 10.1011 178.878 9.03044 176.936C10.2632 179.215 12.0975 181.173 14.4584 182.866C19.0717 186.175 24.2251 187.585 29.8877 187.343C35.4056 187.108 40.118 184.606 44.1514 180.933C47.8739 177.543 50.345 173.421 50.345 168.299C50.345 166.431 50.0577 164.566 49.2699 162.859L49.2523 162.82L49.0598 162.38L30.3081 141.898C29.7934 141.37 29.3128 140.621 28.9209 140.005L28.7834 139.789L28.6999 139.547C28.4047 138.691 28.2209 137.777 28.2209 136.869C28.2209 135.538 28.6199 134.281 29.2731 133.13L29.334 133.022L34.6103 125.784L52.6776 142.892V129.293ZM8.71203 176.312C8.03239 174.869 7.66024 173.258 7.66024 171.473C7.66024 169.238 7.98537 166.755 9.30226 164.882C10.6103 163.022 12.5842 162.187 14.8301 162.187C15.4917 162.187 16.0889 162.307 16.6268 162.522C16.5785 162.387 16.5227 162.253 16.4587 162.12C15.5628 160.772 14.341 159.444 12.7584 158.944L10.2059 158.138L11.5246 155.809C12.0622 154.859 12.1862 153.837 12.093 152.759C11.9879 151.538 11.3315 150.679 10.3637 149.96C9.83288 149.566 9.27266 149.237 8.68159 148.989C9.5598 150.804 10.1614 152.748 10.239 154.748L10.2405 154.8C10.2776 157.306 9.38475 160.39 8.62114 162.76C7.9713 164.777 7.17811 167.525 7.21043 169.661C7.24779 172.133 7.7633 174.339 8.71203 176.312ZM148.233 138.332L149.696 138.51C153.988 139.031 158.305 139.485 162.624 139.692C167.447 139.923 171.697 140.833 176.08 142.845C178.931 144.153 182.384 146.153 182.384 149.728C182.384 150.706 182.417 151.683 182.417 152.661V168.127H85.5416V150.877C85.4717 150.928 85.4016 150.979 85.3312 151.028L85.0695 151.212L84.7656 151.312C82.721 151.988 80.5135 152.544 78.361 152.719C70.6139 153.347 61.8128 156.939 61.8128 165.959V173.249H80.3536V175.417C80.3536 178.603 79.405 181.513 77.1381 183.795C75.1882 185.757 72.7559 186.74 70.089 186.982C71.1649 187.287 72.3086 187.435 73.5231 187.435C76.8741 187.435 79.7142 186.356 82.0886 183.982C84.4629 181.608 85.5416 178.768 85.5416 175.417V173.249H205.074L205.517 174.833C206.181 177.206 207.124 180.255 208.431 182.361C209.02 183.311 209.795 184.211 210.652 185.044V142.772C210.496 142.975 210.335 143.172 210.169 143.362C208.659 145.099 206.64 146.43 204.5 147.467C205.242 148.63 205.597 150.098 205.597 151.729V168.127H188.293V149.728C188.293 145.3 183.562 142.191 180.103 140.379C173.976 137.168 167.128 135.696 160.258 135.32C157.169 135.151 154.029 134.756 150.965 134.331L150.849 134.314L150.736 134.286C148.128 133.632 145.634 132.446 143.344 131.016C141.055 132.446 138.561 133.632 135.953 134.286L135.839 134.314L135.723 134.331C132.66 134.756 129.52 135.151 126.43 135.32C119.561 135.696 112.712 137.168 106.586 140.379C103.126 142.191 98.3954 145.3 98.3954 149.728V157.062H165.007V152.659H106.76V149.728C106.76 146.153 110.213 144.153 113.064 142.845C117.468 140.823 122.058 139.923 126.88 139.692C131.199 139.485 135.515 139.031 139.807 138.51L141.271 138.332L142.642 138.03C143.17 137.915 143.696 137.79 144.219 137.657L144.752 137.522L145.285 137.657C145.809 137.79 146.335 137.915 146.862 138.031L148.233 138.332ZM80.3536 168.127H66.404V165.959C66.404 160.168 73.3634 157.847 78.1857 157.847H80.3536V168.127ZM206.659 95.5293C204.781 95.5293 203.259 97.0506 203.259 98.9288C203.259 100.807 204.781 102.328 206.659 102.328C208.537 102.328 210.058 100.807 210.058 98.9288C210.058 97.0506 208.537 95.5293 206.659 95.5293ZM206.659 114.787C204.781 114.787 203.259 116.308 203.259 118.186C203.259 120.065 204.781 121.586 206.659 121.586C208.537 121.586 210.058 120.065 210.058 118.186C210.058 116.308 208.537 114.787 206.659 114.787ZM139.859 115.184C140.874 114.875 141.936 114.716 143.013 114.716C144.09 114.716 145.151 114.875 146.166 115.184C145.802 113.783 144.528 112.749 143.013 112.749C141.497 112.749 140.224 113.783 139.859 115.184ZM149.485 127.358C149.342 123.907 146.499 121.154 143.013 121.154C139.466 121.154 136.586 124.002 136.535 127.536C137.118 127.409 137.698 127.268 138.267 127.127C139.571 126.478 140.825 125.147 141.715 124.053L143.396 121.988L145.078 124.053C145.968 125.147 147.221 126.478 148.525 127.127C148.844 127.206 149.164 127.283 149.485 127.358Z" fill="#96989A"/>
<path fill-rule="evenodd" clip-rule="evenodd" d="M51.1696 127.785L49.0263 129.298L32.1905 112.881L20.3307 130.595C19.4558 131.877 18.1312 134.031 18.0861 135.638C18.0435 137.163 18.6912 138.74 19.4344 140.059L40.2182 162.597L40.3317 162.785C41.3796 164.521 41.8942 166.449 41.8942 168.475C41.8942 171.909 40.2707 174.91 38.0691 177.447C34.3149 181.772 29.0995 183.444 23.5041 183.532C19.4588 183.595 15.7048 182.484 12.298 180.305C10.2426 178.99 8.59307 177.37 7.52239 175.428C8.75511 177.707 10.5894 179.665 12.9503 181.358C17.5636 184.667 22.717 186.077 28.3796 185.835C33.8976 185.6 38.61 183.098 42.6433 179.425C46.3659 176.035 48.837 171.913 48.837 166.791C48.837 164.923 48.5496 163.058 47.7619 161.351L47.7443 161.312L47.5518 160.872L28.8 140.39C28.2854 139.862 27.8047 139.113 27.4128 138.497L27.2753 138.281L27.1918 138.039C26.8967 137.182 26.7128 136.269 26.7128 135.361C26.7128 134.03 27.1118 132.773 27.765 131.622L27.8259 131.514L33.1023 124.276L51.1696 141.384V127.785ZM7.20396 174.804C6.52432 173.361 6.15217 171.75 6.15217 169.965C6.15217 167.73 6.4773 165.247 7.7942 163.374C9.10227 161.514 11.0761 160.679 13.322 160.679C13.9836 160.679 14.5808 160.799 15.1188 161.014C15.0705 160.879 15.0146 160.745 14.9506 160.612C14.0548 159.264 12.833 157.936 11.2504 157.436L8.69781 156.63L10.0166 154.301C10.5541 153.351 10.6782 152.328 10.585 151.251C10.4798 150.03 9.82348 149.171 8.85565 148.452C8.32482 148.058 7.7646 147.729 7.17354 147.481C8.05174 149.296 8.6533 151.24 8.73096 153.24L8.73244 153.292C8.76959 155.798 7.87669 158.882 7.11309 161.252C6.46325 163.269 5.67005 166.016 5.70237 168.153C5.73973 170.625 6.25523 172.831 7.20396 174.804ZM146.725 136.824L148.188 137.002C152.48 137.523 156.797 137.977 161.116 138.184C165.939 138.415 170.189 139.325 174.572 141.337C177.423 142.645 180.876 144.645 180.876 148.22C180.876 149.198 180.909 150.175 180.909 151.153V166.619H84.0335V149.369C83.9636 149.42 83.8935 149.47 83.8232 149.52L83.5615 149.704L83.2575 149.804C81.2129 150.48 79.0054 151.036 76.8529 151.211C69.1059 151.839 60.3047 155.431 60.3047 164.451V171.741H78.8455V173.909C78.8455 177.095 77.897 180.005 75.6301 182.287C73.6801 184.249 71.2479 185.232 68.5809 185.474C69.6568 185.779 70.8006 185.927 72.015 185.927C75.366 185.927 78.2061 184.848 80.5805 182.474C82.9548 180.1 84.0335 177.26 84.0335 173.909V171.741H203.565L204.009 173.325C204.672 175.697 205.616 178.747 206.923 180.853C207.512 181.803 208.287 182.703 209.144 183.535V141.264C208.988 141.467 208.827 141.664 208.661 141.854C207.151 143.591 205.132 144.922 202.992 145.959C203.734 147.122 204.089 148.59 204.089 150.221V166.619H186.785V148.22C186.785 143.792 182.054 140.683 178.595 138.871C172.468 135.66 165.62 134.188 158.75 133.812C155.661 133.643 152.521 133.248 149.457 132.823L149.341 132.806L149.228 132.778C146.62 132.124 144.125 130.938 141.836 129.508C139.547 130.938 137.053 132.124 134.445 132.778L134.331 132.806L134.215 132.823C131.152 133.248 128.012 133.643 124.922 133.812C118.053 134.187 111.204 135.66 105.078 138.871C101.618 140.683 96.8874 143.792 96.8874 148.22V155.554H163.499V151.15H105.252V148.22C105.252 144.645 108.705 142.645 111.556 141.337C115.96 139.315 120.549 138.415 125.372 138.184C129.691 137.977 134.007 137.523 138.299 137.002L139.763 136.824L141.134 136.522C141.661 136.407 142.187 136.282 142.711 136.149L143.244 136.014L143.777 136.149C144.301 136.282 144.827 136.407 145.354 136.523L146.725 136.824ZM78.8455 166.619H64.896V164.451C64.896 158.66 71.8553 156.339 76.6777 156.339H78.8455V166.619ZM205.151 94.0212C203.273 94.0212 201.751 95.5426 201.751 97.4207C201.751 99.2989 203.273 100.82 205.151 100.82C207.029 100.82 208.55 99.2987 208.55 97.4207C208.55 95.5426 207.029 94.0212 205.151 94.0212ZM205.151 113.279C203.273 113.279 201.751 114.8 201.751 116.678C201.751 118.556 203.273 120.078 205.151 120.078C207.029 120.078 208.55 118.556 208.55 116.678C208.55 114.8 207.029 113.279 205.151 113.279ZM138.351 113.676C139.366 113.367 140.427 113.208 141.504 113.208C142.582 113.208 143.643 113.367 144.658 113.676C144.294 112.275 143.02 111.241 141.504 111.241C139.989 111.241 138.716 112.275 138.351 113.676ZM147.977 125.85C147.834 122.399 144.991 119.646 141.504 119.646C137.958 119.646 135.078 122.494 135.027 126.028C135.61 125.901 136.19 125.76 136.759 125.618C138.063 124.97 139.317 123.639 140.207 122.545L141.888 120.48L143.57 122.545C144.46 123.639 145.713 124.97 147.017 125.618C147.336 125.698 147.656 125.775 147.977 125.85Z" fill="#FEFEFE"/>
<path fill-rule="evenodd" clip-rule="evenodd" d="M51.9237 128.54L49.7805 130.052L32.9446 113.635L21.0848 131.349C20.21 132.631 18.8853 134.785 18.8402 136.392C18.7976 137.917 19.4454 139.494 20.1886 140.813L40.9724 163.351L41.0859 163.539C42.1337 165.275 42.6484 167.203 42.6484 169.229C42.6484 172.663 41.0248 175.664 38.8232 178.201C35.069 182.526 29.8537 184.198 24.2583 184.286C20.2129 184.349 16.4589 183.238 13.0521 181.059C10.9968 179.744 9.34722 178.124 8.27654 176.182C9.50926 178.461 11.3435 180.419 13.7045 182.112C18.3178 185.421 23.4712 186.831 29.1338 186.589C34.6517 186.354 39.3641 183.852 43.3975 180.179C47.12 176.789 49.5911 172.667 49.5911 167.545C49.5911 165.677 49.3038 163.812 48.516 162.105L48.4984 162.066L48.3059 161.626L29.5542 141.144C29.0395 140.616 28.5589 139.867 28.167 139.251L28.0295 139.035L27.946 138.793C27.6508 137.937 27.467 137.023 27.467 136.115C27.467 134.784 27.866 133.527 28.5192 132.376L28.5801 132.268L33.8564 125.031L51.9237 142.139V128.54ZM7.95812 175.558C7.27848 174.115 6.90633 172.504 6.90633 170.72C6.90633 168.484 7.23145 166.001 8.54835 164.128C9.85642 162.268 11.8303 161.434 14.0762 161.434C14.7378 161.434 15.3349 161.553 15.8729 161.768C15.8246 161.633 15.7688 161.499 15.7048 161.366C14.8089 160.018 13.5871 158.69 12.0045 158.19L9.45196 157.384L10.7707 155.055C11.3083 154.105 11.4323 153.083 11.3391 152.005C11.234 150.784 10.5776 149.925 9.6098 149.206C9.07897 148.812 8.51875 148.483 7.92769 148.235C8.80589 150.05 9.40746 151.994 9.48512 153.995L9.48659 154.046C9.52374 156.552 8.63084 159.636 7.86724 162.006C7.2174 164.023 6.4242 166.771 6.45652 168.907C6.49388 171.38 7.00939 173.585 7.95812 175.558ZM147.479 137.578L148.943 137.756C153.234 138.277 157.551 138.731 161.871 138.938C166.694 139.169 170.943 140.079 175.326 142.091C178.177 143.399 181.63 145.4 181.63 148.974C181.63 149.952 181.663 150.929 181.663 151.907V167.373H84.7877V150.123C84.7178 150.174 84.6476 150.225 84.5773 150.274L84.3156 150.458L84.0117 150.558C81.9671 151.234 79.7596 151.79 77.6071 151.965C69.86 152.593 61.0588 156.185 61.0588 165.205V172.495H79.5997V174.663C79.5997 177.85 78.6511 180.759 76.3842 183.041C74.4343 185.003 72.002 185.986 69.3351 186.228C70.411 186.533 71.5547 186.681 72.7692 186.681C76.1202 186.681 78.9603 185.603 81.3346 183.228C83.709 180.854 84.7877 178.014 84.7877 174.663V172.495H204.32L204.763 174.079C205.427 176.452 206.37 179.501 207.677 181.607C208.266 182.557 209.041 183.457 209.898 184.29V142.018C209.742 142.221 209.581 142.418 209.416 142.608C207.906 144.345 205.886 145.676 203.746 146.713C204.488 147.876 204.843 149.344 204.843 150.975V167.373H187.539V148.974C187.539 144.546 182.808 141.438 179.349 139.625C173.223 136.414 166.375 134.942 159.504 134.566C156.415 134.397 153.275 134.002 150.211 133.577L150.096 133.561L149.982 133.532C147.374 132.878 144.88 131.692 142.59 130.262C140.301 131.692 137.807 132.878 135.199 133.532L135.085 133.561L134.97 133.577C131.906 134.002 128.766 134.397 125.677 134.566C118.807 134.942 111.958 136.414 105.832 139.625C102.373 141.438 97.6415 144.546 97.6415 148.974V156.308H164.253V151.905H106.006V148.974C106.006 145.4 109.459 143.399 112.31 142.091C116.714 140.069 121.304 139.169 126.126 138.938C130.445 138.731 134.762 138.277 139.053 137.756L140.517 137.578L141.888 137.277C142.416 137.161 142.942 137.036 143.465 136.903L143.998 136.768L144.531 136.903C145.055 137.036 145.581 137.161 146.108 137.277L147.479 137.578ZM79.5997 167.373H65.6501V165.205C65.6501 159.414 72.6095 157.093 77.4318 157.093H79.5997V167.373ZM205.905 94.7754C204.027 94.7754 202.506 96.2967 202.506 98.1749C202.506 100.053 204.027 101.574 205.905 101.574C207.783 101.574 209.304 100.053 209.304 98.1749C209.304 96.2967 207.783 94.7754 205.905 94.7754ZM205.905 114.033C204.027 114.033 202.506 115.554 202.506 117.432C202.506 119.311 204.027 120.832 205.905 120.832C207.783 120.832 209.304 119.311 209.304 117.432C209.304 115.554 207.783 114.033 205.905 114.033ZM139.105 114.43C140.12 114.121 141.182 113.962 142.259 113.962C143.336 113.962 144.397 114.121 145.412 114.43C145.048 113.029 143.774 111.995 142.259 111.995C140.743 111.995 139.47 113.029 139.105 114.43ZM148.731 126.605C148.588 123.153 145.745 120.4 142.259 120.4C138.712 120.4 135.832 123.248 135.781 126.782C136.364 126.655 136.944 126.514 137.513 126.373C138.818 125.724 140.071 124.393 140.961 123.299L142.642 121.234L144.324 123.299C145.214 124.393 146.467 125.724 147.772 126.373C148.09 126.452 148.41 126.529 148.731 126.605Z" fill="url(#paint3_linear_411_2)"/>
</g>
<defs>
<filter id="filter0_d_411_2" x="0" y="1.07031" width="218.805" height="215.255" filterUnits="userSpaceOnUse" color-interpolation-filters="sRGB">
<feFlood flood-opacity="0" result="BackgroundImageFix"/>
<feColorMatrix in="SourceAlpha" type="matrix" values="0 0 0 0 0 0 0 0 0 0 0 0 0 0 0 0 0 0 127 0" result="hardAlpha"/>
<feOffset dy="4"/>
<feGaussianBlur stdDeviation="2"/>
<feComposite in2="hardAlpha" operator="out"/>
<feColorMatrix type="matrix" values="0 0 0 0 0 0 0 0 0 0 0 0 0 0 0 0 0 0 0.25 0"/>
<feBlend mode="normal" in2="BackgroundImageFix" result="effect1_dropShadow_411_2"/>
<feBlend mode="normal" in="SourceGraphic" in2="effect1_dropShadow_411_2" result="shape"/>
</filter>
<linearGradient id="paint0_linear_411_2" x1="179.584" y1="83.7066" x2="212.954" y2="82.8255" gradientUnits="userSpaceOnUse">
<stop stop-color="#D2D3D5"/>
<stop offset="0.101961" stop-color="#E4E5E6"/>
<stop offset="0.180392" stop-color="#D2D3D5"/>
<stop offset="0.329412" stop-color="#FEFEFE"/>
<stop offset="0.470588" stop-color="#96989A"/>
<stop offset="0.580392" stop-color="#FEFEFE"/>
<stop offset="0.729412" stop-color="#D2D3D5"/>
<stop offset="1" stop-color="#FEFEFE"/>
</linearGradient>
<linearGradient id="paint1_linear_411_2" x1="91.005" y1="177.959" x2="200.295" y2="207.024" gradientUnits="userSpaceOnUse">
<stop stop-color="#7E8082"/>
<stop offset="0.270588" stop-color="#A6A8AB"/>
<stop offset="0.529412" stop-color="#7E8082"/>
<stop offset="0.819608" stop-color="#A6A8AB"/>
<stop offset="1" stop-color="#7E8082"/>
</linearGradient>
<linearGradient id="paint2_linear_411_2" x1="209.182" y1="152.897" x2="13.4139" y2="152.896" gradientUnits="userSpaceOnUse">
<stop stop-color="#9A6A06"/>
<stop offset="0.2" stop-color="#F5FF8E"/>
<stop offset="0.470588" stop-color="#976603"/>
<stop offset="0.729412" stop-color="#F7FF90"/>
<stop offset="1" stop-color="#936100"/>
</linearGradient>
<linearGradient id="paint3_linear_411_2" x1="236.549" y1="196.85" x2="-13.6537" y2="115.437" gradientUnits="userSpaceOnUse">
<stop stop-color="#A57E43"/>
<stop offset="0.270588" stop-color="#F7FF90"/>
<stop offset="0.4" stop-color="#F4F2AB"/>
<stop offset="0.529412" stop-color="#976603"/>
<stop offset="0.8" stop-color="#F5FF8E"/>
<stop offset="1" stop-color="#FEFEFE"/>
</linearGradient>
</defs>
</svg>
