<?xml version="1.0" encoding="UTF-8"?>
<!DOCTYPE svg PUBLIC "-//W3C//DTD SVG 1.1//EN" "http://www.w3.org/Graphics/SVG/1.1/DTD/svg11.dtd">
<!-- Creator: CorelDRAW 2021 (64-Bit) -->
<svg xmlns="http://www.w3.org/2000/svg" xml:space="preserve" width="210mm" height="297mm" version="1.1" style="shape-rendering:geometricPrecision; text-rendering:geometricPrecision; image-rendering:optimizeQuality; fill-rule:evenodd; clip-rule:evenodd"
viewBox="0 0 21000 29700"
 xmlns:xlink="http://www.w3.org/1999/xlink"
 xmlns:xodm="http://www.corel.com/coreldraw/odm/2003">
 <defs>
  <style type="text/css">
   <![CDATA[
    .fil3 {fill:#FEFEFE}
    .fil5 {fill:#FEFEFE}
    .fil2 {fill:#96989A}
    .fil0 {fill:url(#id0)}
    .fil7 {fill:url(#id1)}
    .fil4 {fill:url(#id2)}
    .fil9 {fill:url(#id3)}
    .fil8 {fill:url(#id4)}
    .fil6 {fill:url(#id5)}
    .fil11 {fill:url(#id6)}
    .fil10 {fill:url(#id7)}
    .fil1 {fill:url(#id8)}
   ]]>
  </style>
  <linearGradient id="id0" gradientUnits="userSpaceOnUse" x1="10492.87" y1="6191.42" x2="10492.97" y2="23509.64">
   <stop offset="0" style="stop-opacity:1; stop-color:#242425"/>
   <stop offset="1" style="stop-opacity:1; stop-color:#787979"/>
  </linearGradient>
  <linearGradient id="id1" gradientUnits="userSpaceOnUse" x1="13548.37" y1="13948.4" x2="15138.18" y2="13906.42">
   <stop offset="0" style="stop-opacity:1; stop-color:#D2D3D5"/>
   <stop offset="0.101961" style="stop-opacity:1; stop-color:#E4E5E6"/>
   <stop offset="0.180392" style="stop-opacity:1; stop-color:#D2D3D5"/>
   <stop offset="0.329412" style="stop-opacity:1; stop-color:#FEFEFE"/>
   <stop offset="0.470588" style="stop-opacity:1; stop-color:#96989A"/>
   <stop offset="0.580392" style="stop-opacity:1; stop-color:#FEFEFE"/>
   <stop offset="0.729412" style="stop-opacity:1; stop-color:#D2D3D5"/>
   <stop offset="1" style="stop-opacity:1; stop-color:#FEFEFE"/>
  </linearGradient>
  <linearGradient id="id2" gradientUnits="userSpaceOnUse" xlink:href="#id1" x1="5858.94" y1="12738.23" x2="13737.07" y2="11916.97">
  </linearGradient>
  <linearGradient id="id3" gradientUnits="userSpaceOnUse" xlink:href="#id1" x1="9575.94" y1="19868.57" x2="14585.79" y2="18393.77">
  </linearGradient>
  <linearGradient id="id4" gradientUnits="userSpaceOnUse" x1="9328.26" y1="18438.8" x2="14535.13" y2="19823.55">
   <stop offset="0" style="stop-opacity:1; stop-color:#7E8082"/>
   <stop offset="0.270588" style="stop-opacity:1; stop-color:#A6A8AB"/>
   <stop offset="0.529412" style="stop-opacity:1; stop-color:#7E8082"/>
   <stop offset="0.819608" style="stop-opacity:1; stop-color:#A6A8AB"/>
   <stop offset="1" style="stop-opacity:1; stop-color:#7E8082"/>
  </linearGradient>
  <linearGradient id="id5" gradientUnits="userSpaceOnUse" xlink:href="#id4" x1="13348.48" y1="13891.06" x2="15238.23" y2="13942.89">
  </linearGradient>
  <linearGradient id="id6" gradientUnits="userSpaceOnUse" x1="16262.3" y1="19338.82" x2="4342.04" y2="15460.1">
   <stop offset="0" style="stop-opacity:1; stop-color:#A57E43"/>
   <stop offset="0.270588" style="stop-opacity:1; stop-color:#F7FF90"/>
   <stop offset="0.4" style="stop-opacity:1; stop-color:#F4F2AB"/>
   <stop offset="0.529412" style="stop-opacity:1; stop-color:#976603"/>
   <stop offset="0.8" style="stop-opacity:1; stop-color:#F5FF8E"/>
   <stop offset="1" style="stop-opacity:1; stop-color:#FEFEFE"/>
  </linearGradient>
  <linearGradient id="id7" gradientUnits="userSpaceOnUse" x1="14958.48" y1="17244.81" x2="5631.61" y2="17244.77">
   <stop offset="0" style="stop-opacity:1; stop-color:#9A6A06"/>
   <stop offset="0.2" style="stop-opacity:1; stop-color:#F5FF8E"/>
   <stop offset="0.470588" style="stop-opacity:1; stop-color:#976603"/>
   <stop offset="0.729412" style="stop-opacity:1; stop-color:#F7FF90"/>
   <stop offset="1" style="stop-opacity:1; stop-color:#936100"/>
  </linearGradient>
  <linearGradient id="id8" gradientUnits="userSpaceOnUse" xlink:href="#id4" x1="5471.77" y1="11944.18" x2="13651.94" y2="12727.93">
  </linearGradient>
 </defs>
 <g id="Layer_x0020_1">
  <metadata id="CorelCorpID_0Corel-Layer"/>
  <g id="_2456512663248">
   <polygon class="fil0" points="4369.96,8727.62 7956.67,8727.62 10492.87,6191.42 13029.07,8727.62 16615.78,8727.62 16615.78,12314.33 19151.98,14850.53 16615.78,17386.73 16615.78,20973.44 13029.07,20973.44 10492.87,23509.64 7956.67,20973.44 4369.96,20973.44 4369.96,17386.73 1833.76,14850.53 4369.96,12314.33 "/>
   <path class="fil1" d="M7035.03 11392.69l2025.55 0 1432.29 -1432.29 1432.29 1432.29 2025.55 0 0 836.39c-32.16,37.1 -65.16,73.68 -99.33,109.69 -86.43,91.03 -177.57,176.15 -272.79,256.52l0 -830.48 -1807.57 0 -1278.15 -1278.15 -1278.15 1278.15 -1807.57 0 0 1807.57 -1278.15 1278.15 270.91 270.91 -211.04 315.22 -586.13 -586.13 1432.29 -1432.29 0 -2025.55z"/>
   <g>
    <path class="fil2" d="M7191.81 11549.47l0 1975.13 -1396.64 1396.64 451.18 451.19 113.42 -169.41 -281.78 -281.78 1313.8 -1313.8 0 -1857.99 1857.99 0 1313.8 -1313.8 1313.8 1313.8 1857.99 0 0 724.56c42.54,-40.11 84.02,-81.36 124.29,-123.79 25.74,-27.11 50.94,-54.73 75.69,-82.76l0 -717.99 -1975.13 0 -1396.64 -1396.64 -1396.64 1396.64 -1975.13 0z"/>
    <path class="fil3" d="M7050.39 11408.05l0 1975.13 -1396.64 1396.64 451.18 451.19 113.42 -169.41 -281.78 -281.78 1313.8 -1313.8 0 -1857.99 1857.99 0 1313.8 -1313.8 1313.8 1313.8 1857.99 0 0 724.56c42.54,-40.11 84.02,-81.36 124.29,-123.79 25.74,-27.11 50.94,-54.73 75.69,-82.76l0 -717.99 -1975.13 0 -1396.64 -1396.64 -1396.64 1396.64 -1975.13 0z"/>
   </g>
   <path class="fil4" d="M7121.1 11478.76l0 1975.13 -1396.64 1396.64 451.18 451.19 113.42 -169.41 -281.78 -281.78 1313.8 -1313.8 0 -1857.99 1857.99 0 1313.8 -1313.8 1313.8 1313.8 1857.99 0 0 724.56c42.54,-40.11 84.02,-81.36 124.29,-123.79 25.74,-27.11 50.94,-54.73 75.69,-82.76l0 -717.99 -1975.13 0 -1396.64 -1396.64 -1396.64 1396.64 -1975.13 0z"/>
   <path class="fil5" d="M11770.1 14516.23c13.43,0 26.62,1.01 39.51,2.93 -90.09,15.89 -158.53,94.55 -158.53,189.19 0,106.11 86.02,192.13 192.13,192.13 94.65,0 173.3,-68.45 189.19,-158.54 1.93,12.9 2.93,26.1 2.93,39.53 0,146.48 -118.75,265.23 -265.23,265.23 -146.49,0 -265.24,-118.75 -265.24,-265.23 0,-146.49 118.75,-265.24 265.24,-265.24z"/>
   <path class="fil5" d="M14342.58 11389.58c13.43,0 26.63,1.01 39.52,2.94 -90.1,15.89 -158.53,94.54 -158.53,189.19 0,106.11 86.01,192.12 192.12,192.12 94.65,0 173.31,-68.44 189.2,-158.53 1.92,12.89 2.93,26.09 2.93,39.52 0,146.48 -118.75,265.23 -265.24,265.23 -146.49,0 -265.24,-118.75 -265.24,-265.23 0,-146.49 118.75,-265.24 265.24,-265.24z"/>
   <path class="fil6" d="M13386.38 12959.78c0,0 198.26,118.96 211.48,300.7 13.21,181.74 3.29,383.31 13.21,498.96 9.91,115.65 59.48,231.31 59.48,231.31 0,0 132.18,-152 264.36,-198.27 132.16,-46.26 204.87,-66.09 204.87,-66.09l0 -849.22 202.8 -182.97 202.8 182.97 0 849.22 -0.21 8.92 0.01 1.99c0,223.77 -194.98,174.37 -336.15,200.26 -61.85,11.35 -120.87,30.83 -175.91,57.27 -235.32,113.07 -397.78,353.67 -397.78,632.21 0,89.86 16.93,175.76 47.74,254.72 128.23,-111.08 284.71,-190.4 457.21,-225.75 -1.38,-9.46 -2.1,-19.13 -2.1,-28.97 0,-64.53 30.85,-121.86 78.6,-158.05 73.89,-55.95 170.35,-32.43 261.07,-48.58 16.38,-2.93 32.59,-6.53 48.62,-10.69 62.02,-74.97 154.02,-124.25 257.63,-129.44 160.88,-126.29 272.62,-318.39 289.98,-520.84 9.91,-115.65 0,-317.22 13.21,-498.96 13.22,-181.74 211.48,-300.7 211.48,-300.7 -511.77,-359.61 -742.41,-665.67 -956.2,-944.13 -213.79,278.46 -444.43,584.52 -956.2,944.13zm1610.53 1978.32c-44.04,101.03 -111.19,189.66 -194.78,259.21 -116.95,0.07 -220.76,56.25 -286.02,143.05 -12.63,3 -25.37,5.68 -38.25,7.98 -90.72,16.16 -187.18,-7.37 -261.07,48.59 -47.75,36.18 -78.6,93.51 -78.6,158.05 0,9.84 0.72,19.51 2.1,28.97 -172.5,35.35 -328.98,114.68 -457.21,225.75 -30.81,-78.96 -47.74,-164.87 -47.74,-254.72 0,-278.54 162.46,-519.14 397.78,-632.22 55.04,-26.43 114.05,-45.91 175.91,-57.26 91.53,-16.79 208.62,-4.9 279.64,-55.43 60.89,110.57 178.53,185.5 313.69,185.5 71.75,0 138.55,-21.13 194.55,-57.47zm6.1 913.45c-89.54,218.73 -286.41,382.17 -525.15,424.72 -90.72,16.17 -187.18,-7.36 -261.07,48.6 -25.41,19.25 -46.04,44.5 -59.78,73.65 -108.32,-102.36 -237.17,-187.98 -372.14,-258.7 -15.3,-8.02 -30.69,-15.86 -46.13,-23.52 70.32,-114.42 172.6,-207.09 294.38,-265.61 55.04,-26.44 114.05,-45.91 175.91,-57.26 93.35,-17.13 213.26,-4.41 283.81,-58.51 62,106.53 177.39,178.14 309.52,178.14 74.36,0 143.42,-22.69 200.65,-61.51z"/>
   <g>
    <path class="fil2" d="M13780.54 13902.77c61.26,-51.79 130.94,-97.82 196.64,-120.82 47.87,-16.75 97.65,-34.11 147.24,-49.47l0 -822.87 288.87 -260.62 288.87 260.62 0 888.49 -0.21 8.73 0.01 0.81c0.54,125.96 -51.92,221.94 -177.36,257.51 -77.44,21.95 -153.01,13.78 -229.33,27.78 -53.38,9.8 -105.25,26.68 -154.16,50.19 -213.4,102.53 -348.99,317.81 -348.99,554.63 0,36.87 3.25,73.54 9.74,109.61 98.93,-66.83 208.21,-117.14 323.65,-148.67 10.25,-74.22 49.47,-141.73 110.02,-187.59 50.91,-38.56 107.69,-52.09 170.17,-56.47 41.88,-2.94 86.55,-0.91 127.77,-8.25 5.83,-1.04 11.64,-2.18 17.42,-3.42 71.47,-75.39 166.88,-123.38 270.17,-135.48 130.82,-110.68 223.28,-273.16 237.99,-444.68 6.09,-71.11 4.72,-146.28 5.05,-217.75 0.44,-93.35 1.29,-186.96 8.07,-280.1 7.66,-105.38 61.99,-197.77 134.43,-272.06 6.25,-6.41 12.87,-12.93 19.78,-19.45 -182.02,-134.55 -352.73,-281.43 -509.15,-446.19 -109.44,-115.28 -207.33,-235.86 -303.94,-360.04 -96.61,124.18 -194.5,244.76 -303.94,360.04 -156.42,164.76 -327.14,311.64 -509.15,446.19 6.91,6.52 13.53,13.04 19.78,19.45 72.44,74.29 126.76,166.68 134.43,272.06 6.78,93.14 7.63,186.74 8.07,280.1 0.33,71.47 -1.04,146.64 5.05,217.75 2.14,24.97 6.71,52.33 13.01,79.97zm1090.13 1249.57c-133.93,-0.72 -258.37,-61.52 -341.23,-162.8 -75.19,22.7 -155.76,16.93 -234.16,31.33 -53.39,9.79 -105.26,26.68 -154.17,50.18 -213.4,102.53 -348.99,317.81 -348.99,554.64 0,36.88 3.26,73.54 9.75,109.61 98.93,-66.83 208.2,-117.14 323.64,-148.67 10.25,-74.22 49.47,-141.73 110.02,-187.59 50.91,-38.56 107.69,-52.1 170.17,-56.47 41.88,-2.94 86.55,-0.91 127.76,-8.26 1.92,-0.34 3.84,-0.68 5.75,-1.05 76.55,-87.34 183.97,-141.19 299.94,-150.02 10.88,-9.93 21.4,-20.24 31.52,-30.9zm9.77 917.44c-2.46,0.04 -4.92,0.06 -7.37,0.06 -131,0 -253.26,-57.49 -336.66,-154.51 -76.9,25.05 -160.56,18.68 -241.13,33.47 -53.39,9.79 -105.25,26.67 -154.17,50.19 -78.47,37.7 -147.93,91.7 -203.8,157.76 97.73,53.9 192.06,115.74 278.17,186.91 6.41,-5.85 13.11,-11.43 20.05,-16.69 50.91,-38.56 107.69,-52.1 170.17,-56.47 41.88,-2.93 86.55,-0.9 127.76,-8.25 135.42,-24.14 256.91,-93.16 346.98,-192.47z"/>
    <path class="fil3" d="M13639.12 13761.35c61.26,-51.79 130.94,-97.82 196.64,-120.82 47.87,-16.75 97.65,-34.11 147.24,-49.47l0 -822.87 288.87 -260.62 288.87 260.62 0 888.49 -0.21 8.73 0.01 0.81c0.54,125.96 -51.92,221.94 -177.36,257.51 -77.44,21.95 -153.01,13.78 -229.33,27.78 -53.38,9.8 -105.25,26.68 -154.16,50.19 -213.4,102.53 -348.99,317.81 -348.99,554.63 0,36.87 3.25,73.54 9.74,109.61 98.93,-66.83 208.21,-117.14 323.65,-148.67 10.25,-74.22 49.47,-141.73 110.02,-187.59 50.91,-38.56 107.69,-52.09 170.17,-56.47 41.88,-2.94 86.55,-0.91 127.77,-8.25 5.83,-1.04 11.64,-2.18 17.42,-3.42 71.47,-75.39 166.88,-123.38 270.17,-135.48 130.82,-110.68 223.28,-273.16 237.99,-444.68 6.09,-71.11 4.72,-146.28 5.05,-217.75 0.44,-93.35 1.29,-186.96 8.07,-280.1 7.66,-105.38 61.99,-197.77 134.43,-272.06 6.25,-6.41 12.87,-12.93 19.78,-19.45 -182.02,-134.55 -352.73,-281.43 -509.15,-446.19 -109.44,-115.28 -207.33,-235.86 -303.94,-360.04 -96.61,124.18 -194.5,244.76 -303.94,360.04 -156.42,164.76 -327.14,311.64 -509.15,446.19 6.91,6.52 13.53,13.04 19.78,19.45 72.44,74.29 126.76,166.68 134.43,272.06 6.78,93.14 7.63,186.74 8.07,280.1 0.33,71.47 -1.04,146.64 5.05,217.75 2.14,24.97 6.71,52.33 13.01,79.97zm1090.13 1249.57c-133.93,-0.72 -258.37,-61.52 -341.23,-162.8 -75.19,22.7 -155.76,16.93 -234.16,31.33 -53.39,9.79 -105.26,26.68 -154.17,50.18 -213.4,102.53 -348.99,317.81 -348.99,554.64 0,36.88 3.26,73.54 9.75,109.61 98.93,-66.83 208.2,-117.14 323.64,-148.67 10.25,-74.22 49.47,-141.73 110.02,-187.59 50.91,-38.56 107.69,-52.1 170.17,-56.47 41.88,-2.94 86.55,-0.91 127.76,-8.26 1.92,-0.34 3.84,-0.68 5.75,-1.05 76.55,-87.34 183.97,-141.19 299.94,-150.02 10.88,-9.93 21.4,-20.24 31.52,-30.9zm9.77 917.44c-2.46,0.04 -4.92,0.06 -7.37,0.06 -131,0 -253.26,-57.49 -336.66,-154.51 -76.9,25.05 -160.56,18.68 -241.13,33.47 -53.39,9.79 -105.25,26.67 -154.17,50.19 -78.47,37.7 -147.93,91.7 -203.8,157.76 97.73,53.9 192.06,115.74 278.17,186.91 6.41,-5.85 13.11,-11.43 20.05,-16.69 50.91,-38.56 107.69,-52.1 170.17,-56.47 41.88,-2.93 86.55,-0.9 127.76,-8.25 135.42,-24.14 256.91,-93.16 346.98,-192.47z"/>
   </g>
   <path class="fil7" d="M13709.83 13832.06c61.26,-51.79 130.94,-97.82 196.64,-120.82 47.87,-16.75 97.65,-34.11 147.24,-49.47l0 -822.87 288.87 -260.62 288.87 260.62 0 888.49 -0.21 8.73 0.01 0.81c0.54,125.96 -51.92,221.94 -177.36,257.51 -77.44,21.95 -153.01,13.78 -229.33,27.78 -53.38,9.8 -105.25,26.68 -154.16,50.19 -213.4,102.53 -348.99,317.81 -348.99,554.63 0,36.87 3.25,73.54 9.74,109.61 98.93,-66.83 208.21,-117.14 323.65,-148.67 10.25,-74.22 49.47,-141.73 110.02,-187.59 50.91,-38.56 107.69,-52.09 170.17,-56.47 41.88,-2.94 86.55,-0.91 127.77,-8.25 5.83,-1.04 11.64,-2.18 17.42,-3.42 71.47,-75.39 166.88,-123.38 270.17,-135.48 130.82,-110.68 223.28,-273.16 237.99,-444.68 6.09,-71.11 4.72,-146.28 5.05,-217.75 0.44,-93.35 1.29,-186.96 8.07,-280.1 7.66,-105.38 61.99,-197.77 134.43,-272.06 6.25,-6.41 12.87,-12.93 19.78,-19.45 -182.02,-134.55 -352.73,-281.43 -509.15,-446.19 -109.44,-115.28 -207.33,-235.86 -303.94,-360.04 -96.61,124.18 -194.5,244.76 -303.94,360.04 -156.42,164.76 -327.14,311.64 -509.15,446.19 6.91,6.52 13.53,13.04 19.78,19.45 72.44,74.29 126.76,166.68 134.43,272.06 6.78,93.14 7.63,186.74 8.07,280.1 0.33,71.47 -1.04,146.64 5.05,217.75 2.14,24.97 6.71,52.33 13.01,79.97zm1090.13 1249.57c-133.93,-0.72 -258.37,-61.52 -341.23,-162.8 -75.19,22.7 -155.76,16.93 -234.16,31.33 -53.39,9.79 -105.26,26.68 -154.17,50.18 -213.4,102.53 -348.99,317.81 -348.99,554.64 0,36.88 3.26,73.54 9.75,109.61 98.93,-66.83 208.2,-117.14 323.64,-148.67 10.25,-74.22 49.47,-141.73 110.02,-187.59 50.91,-38.56 107.69,-52.1 170.17,-56.47 41.88,-2.94 86.55,-0.91 127.76,-8.26 1.92,-0.34 3.84,-0.68 5.75,-1.05 76.55,-87.34 183.97,-141.19 299.94,-150.02 10.88,-9.93 21.4,-20.24 31.52,-30.9zm9.77 917.44c-2.46,0.04 -4.92,0.06 -7.37,0.06 -131,0 -253.26,-57.49 -336.66,-154.51 -76.9,25.05 -160.56,18.68 -241.13,33.47 -53.39,9.79 -105.25,26.67 -154.17,50.19 -78.47,37.7 -147.93,91.7 -203.8,157.76 97.73,53.9 192.06,115.74 278.17,186.91 6.41,-5.85 13.11,-11.43 20.05,-16.69 50.91,-38.56 107.69,-52.1 170.17,-56.47 41.88,-2.93 86.55,-0.9 127.76,-8.25 135.42,-24.14 256.91,-93.16 346.98,-192.47z"/>
   <path class="fil8" d="M10019.3 19481.08c-61.87,-9.51 -106.28,-14.27 -130.07,-23.79 -34.89,-14.27 -38.07,-49.18 -41.25,-68.21 -6.34,-85.65 -1.58,-466.33 -1.58,-699.5 0,-4.76 4.76,-11.1 7.94,-12.69 33.31,-1.58 112.61,-3.17 169.72,1.59 28.55,1.58 45.99,12.68 58.68,47.58 12.69,42.83 20.62,82.49 28.56,145.93 7.92,7.93 69.78,4.76 79.3,-3.17 7.94,-101.52 22.21,-215.73 41.25,-293.45 -1.6,-3.16 -7.94,-14.27 -14.28,-14.27 -39.65,14.27 -95.17,19.03 -190.35,19.03l-564.67 0c-49.17,0 -103.11,-4.76 -147.52,-20.62 -4.76,-1.58 -19.04,7.94 -20.62,11.1 -6.34,82.48 -23.79,218.9 -36.48,287.11 4.76,12.68 71.38,26.96 79.31,20.62 22.2,-63.45 39.65,-106.28 57.1,-141.17 23.8,-47.59 47.59,-55.52 72.97,-57.11 49.17,-1.58 126.89,-1.58 155.44,1.59 4.76,0 9.52,9.51 9.52,14.27 0,258.56 1.58,501.24 -6.34,669.38 -3.18,65.03 -14.28,87.24 -63.46,98.34 -22.2,4.76 -63.44,11.1 -111.03,17.44 -11.1,7.93 -12.68,61.86 0,71.38 49.18,0 144.34,-4.76 280.76,-4.76 123.72,0 222.06,4.76 282.34,4.76 9.52,-11.1 14.27,-61.86 4.76,-71.38zm3771.92 0c-6.34,11.11 -6.34,60.28 0,71.38 49.17,0 123.73,-4.76 196.69,-4.76 109.44,0 182.41,4.76 217.31,4.76 7.92,-9.52 11.1,-63.45 4.76,-71.38 -28.56,-4.75 -55.52,-9.51 -82.48,-15.86 -39.67,-9.52 -46.01,-25.38 -46.01,-52.35 0,-25.37 23.8,-90.4 52.35,-172.88 3.17,-6.35 12.69,-15.87 19.03,-15.87 22.21,-1.58 46,-1.58 120.55,-1.58 49.17,0 114.2,0 144.35,1.58 7.92,0 15.86,4.76 19.03,11.11 20.62,47.58 57.1,144.34 65.03,191.92 3.18,7.93 1.58,22.21 -14.28,31.73 -17.45,9.52 -49.17,15.86 -85.65,22.2 -7.93,7.93 -4.76,60.28 1.59,71.38 50.75,0 133.23,-4.76 247.44,-4.76 125.31,0 193.52,4.76 234.75,4.76 7.94,-7.93 14.28,-61.86 6.35,-71.38 -126.9,-19.03 -134.82,-31.72 -190.34,-161.79 -60.27,-144.34 -191.93,-498.58 -244.27,-636.32 -11.11,-29.88 -22.21,-71.11 -31.73,-102.84 -20.62,1.59 -47.59,1.59 -82.48,1.59 -30.13,0 -58.69,0 -80.89,-1.59 -4.76,31.73 -23.79,93.32 -39.66,131.39 -38.07,110.77 -158.61,425.36 -244.27,626.81 -47.58,107.85 -69.79,123.72 -187.17,142.75zm496.48 -671.48c31.72,82.22 92,251.41 106.27,292.65 0,2.91 -3.17,9.25 -6.35,9.25 -14.27,1.59 -49.17,3.18 -98.34,3.18 -45.99,0 -85.66,0 -103.1,-1.59 -6.35,-1.59 -6.35,-7.93 -6.35,-12.42 28.55,-83.81 72.97,-208.59 99.93,-288.96 3.18,-3.7 6.35,-2.11 7.94,-2.11zm-1884.39 -161.26c46,6.35 61.86,9.51 88.83,19.03 34.9,12.69 55.51,50.76 72.97,96.76 57.1,161.79 198.27,612.27 237.92,797.85 31.73,-6.35 99.93,-4.76 131.65,-1.59 39.65,-141.16 153.86,-453.65 215.73,-618.61 1.58,-1.58 7.92,-3.17 9.51,-1.58 44.41,103.1 190.34,509.16 223.65,624.95 28.55,-6.34 104.69,-6.34 134.83,-4.76 66.62,-207.79 198.27,-601.16 277.58,-799.43 22.21,-57.1 49.17,-84.07 87.24,-95.17 22.21,-7.94 36.48,-11.1 68.2,-17.45 6.35,-11.1 4.76,-65.03 0,-72.97 -31.72,0 -74.55,4.76 -210.95,4.76 -98.35,0 -166.56,-4.76 -204.63,-4.76 -6.34,4.76 -12.68,65.04 -1.58,72.97 42.83,6.35 71.38,9.51 101.51,19.03 41.25,12.69 52.35,39.66 39.66,96.76 -17.45,92 -96.76,352.13 -147.51,499.65 -1.59,4.76 -7.94,4.76 -9.52,3.17 -42.83,-104.68 -195.1,-502.82 -234.76,-636.06 -30.14,4.76 -103.1,6.35 -136.41,0 -42.83,157.03 -136.41,450.48 -195.1,596.4 -3.17,3.18 -7.93,4.76 -9.51,1.59 -42.83,-131.65 -112.62,-364.82 -152.28,-513.92 -3.17,-15.86 1.59,-38.07 22.21,-46 22.21,-6.35 50.76,-14.27 82.48,-20.62 9.52,-11.1 9.52,-65.03 0,-72.97 -66.62,1.6 -107.86,4.76 -237.93,4.76 -117.37,0 -176.06,-4.76 -247.44,-4.76 -11.11,6.35 -11.11,65.04 -6.35,72.97zm314.07 1110.33c6.35,-17.46 -3.17,-65.04 -11.1,-77.73 -44.42,20.62 -115.8,36.48 -185.58,34.9 -84.08,0 -157.04,-25.38 -304.55,-99.94 -63.45,-31.71 -138,-71.37 -188.76,-85.64 84.07,-33.31 160.21,-82.48 212.55,-142.76 74.55,-85.66 114.2,-204.62 114.2,-341.03 0,-260.13 -171.3,-493.3 -502.82,-493.3 -164.96,0 -350.54,65.03 -459.99,214.13 -60.27,84.07 -88.82,188.76 -88.82,299.79 0,164.96 57.1,323.58 199.85,420.34 71.39,49.17 152.28,72.96 245.86,92 42.83,6.34 92,30.13 130.07,55.51 99.93,68.2 174.48,133.24 274.41,190.35 72.97,41.23 147.51,60.27 210.96,60.27 93.59,0 244.28,-33.31 353.72,-126.89zm-923.15 -1118.26c242.68,0 317.23,247.44 317.23,461.58 0,214.13 -74.55,385.44 -215.72,385.44 -234.76,0 -348.96,-203.03 -348.96,-472.68 0,-207.79 71.38,-374.34 247.45,-374.34zm-1640.11 840.67c-6.35,11.11 -6.35,60.28 0,71.38 49.17,0 123.72,-4.76 196.68,-4.76 109.45,0 182.41,4.76 217.31,4.76 7.93,-9.52 11.11,-63.45 4.76,-71.38 -28.56,-4.75 -55.51,-9.51 -82.48,-15.86 -39.66,-9.52 -46,-25.38 -46,-52.35 0,-25.37 23.8,-90.4 52.34,-172.88 3.17,-6.35 12.69,-15.87 19.03,-15.87 22.21,-1.58 46.01,-1.58 120.55,-1.58 49.18,0 114.21,0 144.35,1.58 7.93,0 15.86,4.76 19.03,11.11 20.62,47.58 57.11,144.34 65.04,191.92 3.17,7.93 1.58,22.21 -14.28,31.73 -17.45,9.52 -49.18,15.86 -85.65,22.2 -7.94,7.93 -4.76,60.28 1.58,71.38 50.76,0 133.24,-4.76 247.44,-4.76 125.31,0 193.52,4.76 234.76,4.76 7.93,-7.93 14.28,-61.86 6.34,-71.38 -126.89,-19.03 -134.82,-31.72 -190.33,-161.79 -60.28,-144.34 -191.94,-498.58 -244.28,-636.32 -11.1,-29.88 -22.2,-71.11 -31.72,-102.84 -20.62,1.59 -47.59,1.59 -82.48,1.59 -30.14,0 -58.69,0 -80.9,-1.59 -4.76,31.73 -23.79,93.32 -39.65,131.39 -38.07,110.77 -158.62,425.36 -244.28,626.81 -47.58,107.85 -69.78,123.72 -187.16,142.75zm496.47 -671.48c31.73,82.22 92,251.41 106.27,292.65 0,2.91 -3.16,9.25 -6.34,9.25 -14.27,1.59 -49.17,3.18 -98.34,3.18 -46,0 -85.66,0 -103.11,-1.59 -6.34,-1.59 -6.34,-7.93 -6.34,-12.42 28.55,-83.81 72.96,-208.59 99.93,-288.96 3.17,-3.7 6.35,-2.11 7.93,-2.11z"/>
   <g>
    <path class="fil2" d="M10163.28 18863.37c5.26,-0.07 10.98,-0.37 16.22,-0.83 6.53,-77.9 15.8,-160.5 31.78,-237.23 -52.54,10.47 -113.99,10.46 -162.85,10.46l-564.67 0c-44.45,0 -92.4,-3.57 -135.91,-15.37 -6.74,78.9 -16.91,162.37 -30.46,240.32 5.35,1.53 11.34,2.95 16.86,4.02 14.83,-41.3 30.97,-82.7 50.5,-121.76 22.21,-44.39 50.54,-72.87 101.62,-76.07l1.04 -0.05c49.18,-1.58 110.82,-3.62 159.48,1.69 23.6,1.86 41.02,25.83 41.02,48.58 0,222.37 4.18,449.07 -6.39,671.01 -3.25,68.42 -16.52,113.91 -90.36,130.32 -29.84,6.63 -61.85,11.07 -92.83,15.17 -0.1,1.8 -0.16,3.66 -0.16,5.5 84.89,-0.71 170.03,-4.65 255.24,-4.65 85.8,0 171.51,3.95 257.08,4.65 0.23,-2.05 0.42,-4.15 0.56,-6.2 -37.58,-4.98 -84.51,-10.75 -113.55,-22.53 -43.74,-17.73 -55.24,-52.32 -62.26,-94.44l-0.27 -1.55 -0.11 -1.58c-2.79,-37.65 -2.68,-77.1 -3.02,-114.88 -0.52,-60.72 -0.42,-121.47 -0.24,-182.19 0.4,-134.99 1.58,-269.99 1.58,-404.97 0,-17.28 11.53,-35.78 27,-43.5l6.49 -3.23 7.24 -0.34c56.26,-2.68 118.07,-3.02 173.74,1.63 46.48,2.57 72.95,26.95 88.65,70.16l0.36 0.98 0.3 1c12.41,41.86 20.28,83.19 26.32,125.88zm4008.94 347.58c39.95,-2.81 82.37,-1.63 122.41,-1.63 47.97,0 97.63,-0.88 145.46,1.59 20.09,0.43 39.67,12.03 48.72,30.15l0.41 0.83 0.37 0.86c23.52,54.26 56.58,138.75 66.91,197.03 8.42,27.22 -6.08,55.46 -30.03,69.83l-1.22 0.7c-19.49,10.64 -47.35,17.01 -72.4,21.69 0.05,2.3 0.15,4.7 0.29,7.07 72.83,-0.86 145.86,-4.59 219,-4.59 50.02,0 99.99,0.83 149.98,2.4 19.64,0.62 39.46,1.53 59.2,2.02 0.28,-2.25 0.52,-4.54 0.71,-6.78 -122.21,-21.53 -137.95,-52.87 -190.84,-178.24 -44.6,-105.66 -85.2,-214.43 -125.86,-321.7 -39.87,-105.18 -79.08,-210.61 -118.9,-315.81 -9.75,-25.76 -17.34,-52.64 -24.98,-79.32 -19.04,0.51 -38.25,0.31 -57.03,0.31 -17.5,0 -35.26,0.12 -52.93,-0.31 -8.65,36.32 -22.77,77.39 -35.41,107.89 -32.24,93.73 -68.3,187.3 -104.03,279.75 -45.09,116.71 -91.34,233.56 -140.83,348.47 -48.36,112.27 -80.58,138.96 -189.03,158.94 -0.07,2.25 -0.1,4.55 -0.09,6.85 55.58,-1.03 111.27,-4.47 167.02,-4.47 45.94,0 91.82,0.9 137.74,2.41 17.44,0.56 35.09,1.42 52.67,1.92 0.19,-2.29 0.34,-4.63 0.45,-6.91 -19.85,-3.49 -39.64,-7.3 -59.24,-11.98 -48.3,-11.5 -72.47,-35.86 -72.47,-85.84 0,-41.47 39.85,-142.57 54.24,-184.14l0.74 -2.12 0.99 -2c8.7,-17.4 27.97,-33.9 47.98,-34.87zm138.79 -414.56l21.51 0 8.51 22.03c37.32,96.71 72.77,195.78 106.68,293.78l1.9 5.47 0 5.79c0,20.89 -16.2,41.7 -37.68,43.55 -32.34,3.55 -68.96,3.31 -101.44,3.31 -34.04,0 -72.5,1.33 -106.22,-1.73l-2.67 -0.25 -2.6 -0.64c-22.49,-5.66 -32.38,-24.4 -32.38,-45.82l0 -5.71 1.84 -5.4c32.84,-96.4 67.48,-192.24 99.87,-288.8l2.14 -6.36 4.37 -5.11c9.4,-10.95 22.24,-15.66 36.17,-14.11zm-881.6 751.81c26.87,-2.35 58.82,-2.6 85.4,-1.98 40.85,-126.72 83.18,-253.11 126.43,-379.03 45.62,-132.84 92.07,-267.23 143.96,-397.74 21.19,-53.32 51.2,-98.05 108.58,-115.2 16.42,-5.81 32.22,-9.93 48.57,-13.56 0.06,-2.87 0.07,-5.89 0.03,-8.9 -11.6,0.5 -23.21,1.15 -34.68,1.58 -48.65,1.82 -97.34,2.4 -146.02,2.4 -59.29,0 -118.49,-3.57 -177.39,-4.53 -0.2,2.56 -0.34,5.14 -0.42,7.62 28.1,4.05 56.22,8.42 83.34,16.85 67.68,21.06 77.02,74.16 63.15,136.58 -14.33,75.59 -39.8,157.52 -62.02,231.91 -27.17,91.01 -55.77,182.14 -86.65,271.98 -9.44,27.43 -45.87,36.88 -66.42,16.32l-4.9 -4.89 -2.62 -6.41c-41.58,-101.64 -80.46,-205.45 -118.95,-308.29 -37,-98.86 -76.92,-202.13 -108.57,-303.54 -26.98,1.95 -59.35,2.23 -86.47,0.34 -25.82,92.29 -54.64,184.35 -84.17,275.38 -32.07,98.85 -65.54,199.85 -104.31,296.26l-2.62 6.5 -4.95 4.97c-19.09,19.14 -51.74,18.54 -64.68,-7.33l-1.14 -2.3 -0.8 -2.45c-55.1,-169.38 -107.04,-343.61 -152.81,-515.72l-0.28 -1.03 -0.2 -1.06c-7.02,-35.04 9.16,-71.65 43.59,-84.89l1.44 -0.55 1.47 -0.42c21.38,-6.12 42.74,-11.87 64.37,-16.81 0.17,-2.74 0.26,-5.66 0.26,-8.55 -70.31,1.83 -139.91,4.06 -210.62,4.06 -74.18,0 -148.09,-3.83 -222.01,-4.62 -0.16,2.68 -0.27,5.46 -0.33,8.18 23.39,3.71 45.23,8.31 69.01,16.85 50.54,18.14 75.73,70.05 93.67,117.33 45.55,129.06 86.46,261.25 126.11,391.83 37.49,123.42 77.52,253.27 106.35,379.89 25.41,-1.8 54.23,-1.48 79.44,-0.08 27.17,-92.3 60.44,-185.16 92.43,-275.43 37.77,-106.62 76.68,-212.9 116.4,-318.82l2.62 -6.98 5.28 -5.27c15.02,-15.03 42.7,-17.08 58.19,-1.58l4.66 4.66 2.62 6.06c42.87,99.54 80.16,207.56 116.78,309.71 33.96,94.77 70.56,193.67 99.88,290.7zm-723.12 213.72c-0.15,-4.05 -0.66,-8.97 -1.42,-14.04 -52.02,17.04 -112.31,24.75 -163.35,23.59 -113.98,0.01 -219.73,-53.27 -319.65,-103.61 -54.57,-27.48 -124.54,-66.93 -182.58,-83.25l-98.17 -27.59 94.8 -37.56c73.04,-28.94 147.3,-73.59 199.25,-133.34 76.14,-87.56 105.76,-204.43 105.76,-318.44 0,-278.25 -192.34,-458.87 -468.4,-458.87 -162.81,0 -334.08,65.22 -432.15,199.96 -58.79,80.76 -82.23,180.78 -82.23,279.53 0,154.89 52.87,301.98 184.81,391.89 69.91,47.64 150.48,69.81 232.47,86.54 49.12,7.5 102.45,33.17 143.39,60.93 91.4,61.97 175.95,134.22 272.11,188.91 57.87,32.92 126.86,55.77 193.94,55.77 108.37,0 235.63,-42 321.42,-110.42zm-890.85 -1134.73c270.12,0 351.66,271.95 351.66,496.01 0,95.2 -14.31,203.56 -58.82,288.94 -39.41,75.57 -102.84,130.93 -191.33,130.93 -283.78,0 -383.38,-261.91 -383.38,-507.11 0,-183.08 59.14,-408.77 281.87,-408.77zm-1280.32 583.76c39.95,-2.81 82.36,-1.63 122.4,-1.63 47.98,0 97.63,-0.88 145.47,1.59 20.09,0.43 39.66,12.03 48.72,30.15l0.41 0.83 0.37 0.86c23.51,54.26 56.57,138.75 66.9,197.03 8.43,27.22 -6.08,55.46 -30.02,69.83l-1.22 0.7c-19.5,10.64 -47.35,17.01 -72.4,21.69 0.05,2.3 0.14,4.7 0.29,7.07 72.83,-0.86 145.86,-4.59 218.99,-4.59 50.03,0 99.99,0.83 149.99,2.4 19.64,0.62 39.45,1.53 59.2,2.02 0.27,-2.25 0.51,-4.54 0.7,-6.78 -122.21,-21.53 -137.94,-52.87 -190.84,-178.24 -44.59,-105.66 -85.19,-214.43 -125.86,-321.7 -39.87,-105.18 -79.08,-210.61 -118.9,-315.81 -9.75,-25.76 -17.33,-52.64 -24.97,-79.32 -19.04,0.51 -38.25,0.31 -57.03,0.31 -17.51,0 -35.27,0.12 -52.94,-0.31 -8.65,36.32 -22.76,77.39 -35.4,107.89 -32.25,93.73 -68.31,187.3 -104.04,279.75 -45.09,116.71 -91.33,233.56 -140.82,348.47 -48.37,112.27 -80.58,138.96 -189.04,158.94 -0.07,2.25 -0.09,4.55 -0.08,6.85 55.58,-1.03 111.27,-4.47 167.01,-4.47 45.95,0 91.82,0.9 137.74,2.41 17.45,0.56 35.09,1.42 52.68,1.92 0.18,-2.29 0.33,-4.63 0.44,-6.91 -19.84,-3.49 -39.63,-7.3 -59.24,-11.98 -48.29,-11.5 -72.46,-35.86 -72.46,-85.84 0,-41.47 39.85,-142.57 54.24,-184.14l0.73 -2.12 1 -2c8.69,-17.4 27.96,-33.9 47.98,-34.87zm138.78 -414.56l21.52 0 8.5 22.03c37.32,96.71 72.78,195.78 106.69,293.78l1.89 5.47 0 5.79c0,20.89 -16.2,41.7 -37.67,43.55 -32.35,3.55 -68.96,3.31 -101.44,3.31 -34.04,0 -72.5,1.33 -106.22,-1.73l-2.67 -0.25 -2.6 -0.64c-22.5,-5.66 -32.39,-24.4 -32.39,-45.82l0 -5.71 1.84 -5.4c32.85,-96.4 67.48,-192.24 99.88,-288.8l2.13 -6.36 4.38 -5.11c9.4,-10.95 22.24,-15.66 36.16,-14.11z"/>
    <path class="fil3" d="M10120.86 18820.95c5.26,-0.07 10.98,-0.37 16.22,-0.83 6.53,-77.9 15.8,-160.5 31.78,-237.23 -52.54,10.47 -113.99,10.46 -162.85,10.46l-564.67 0c-44.45,0 -92.4,-3.57 -135.91,-15.37 -6.74,78.9 -16.91,162.37 -30.46,240.32 5.35,1.53 11.34,2.95 16.86,4.02 14.83,-41.3 30.97,-82.7 50.5,-121.76 22.21,-44.39 50.54,-72.87 101.62,-76.07l1.04 -0.05c49.18,-1.58 110.82,-3.62 159.48,1.69 23.6,1.86 41.02,25.83 41.02,48.58 0,222.37 4.18,449.07 -6.39,671.01 -3.25,68.42 -16.52,113.91 -90.36,130.32 -29.84,6.63 -61.85,11.07 -92.83,15.17 -0.1,1.8 -0.16,3.66 -0.16,5.5 84.89,-0.71 170.03,-4.65 255.24,-4.65 85.8,0 171.51,3.95 257.08,4.65 0.23,-2.05 0.42,-4.15 0.56,-6.2 -37.58,-4.98 -84.51,-10.75 -113.55,-22.53 -43.74,-17.73 -55.24,-52.32 -62.26,-94.44l-0.27 -1.55 -0.11 -1.58c-2.79,-37.65 -2.68,-77.1 -3.02,-114.88 -0.52,-60.72 -0.42,-121.47 -0.24,-182.19 0.4,-134.99 1.58,-269.99 1.58,-404.97 0,-17.28 11.53,-35.78 27,-43.5l6.49 -3.23 7.24 -0.34c56.26,-2.68 118.07,-3.02 173.74,1.63 46.48,2.57 72.95,26.95 88.65,70.16l0.36 0.98 0.3 1c12.41,41.86 20.28,83.19 26.32,125.88zm4008.94 347.58c39.95,-2.81 82.37,-1.63 122.41,-1.63 47.97,0 97.63,-0.88 145.46,1.59 20.09,0.43 39.67,12.03 48.72,30.15l0.41 0.83 0.37 0.86c23.52,54.26 56.58,138.75 66.91,197.03 8.42,27.22 -6.08,55.46 -30.03,69.83l-1.22 0.7c-19.49,10.64 -47.35,17.01 -72.4,21.69 0.05,2.3 0.15,4.7 0.29,7.07 72.83,-0.86 145.86,-4.59 219,-4.59 50.02,0 99.99,0.83 149.98,2.4 19.64,0.62 39.46,1.53 59.2,2.02 0.28,-2.25 0.52,-4.54 0.71,-6.78 -122.21,-21.53 -137.95,-52.87 -190.84,-178.24 -44.6,-105.66 -85.2,-214.43 -125.86,-321.7 -39.87,-105.18 -79.08,-210.61 -118.9,-315.81 -9.75,-25.76 -17.34,-52.64 -24.98,-79.32 -19.04,0.51 -38.25,0.31 -57.03,0.31 -17.5,0 -35.26,0.12 -52.93,-0.31 -8.65,36.32 -22.77,77.39 -35.41,107.89 -32.24,93.73 -68.3,187.3 -104.03,279.75 -45.09,116.71 -91.34,233.56 -140.83,348.47 -48.36,112.27 -80.58,138.96 -189.03,158.94 -0.07,2.25 -0.1,4.55 -0.09,6.85 55.58,-1.03 111.27,-4.47 167.02,-4.47 45.94,0 91.82,0.9 137.74,2.41 17.44,0.56 35.09,1.42 52.67,1.92 0.19,-2.29 0.34,-4.63 0.45,-6.91 -19.85,-3.49 -39.64,-7.3 -59.24,-11.98 -48.3,-11.5 -72.47,-35.86 -72.47,-85.84 0,-41.47 39.85,-142.57 54.24,-184.14l0.74 -2.12 0.99 -2c8.7,-17.4 27.97,-33.9 47.98,-34.87zm138.79 -414.56l21.51 0 8.51 22.03c37.32,96.71 72.77,195.78 106.68,293.78l1.9 5.47 0 5.79c0,20.89 -16.2,41.7 -37.68,43.55 -32.34,3.55 -68.96,3.31 -101.44,3.31 -34.04,0 -72.5,1.33 -106.22,-1.73l-2.67 -0.25 -2.6 -0.64c-22.49,-5.66 -32.38,-24.4 -32.38,-45.82l0 -5.71 1.84 -5.4c32.84,-96.4 67.48,-192.24 99.87,-288.8l2.14 -6.36 4.37 -5.11c9.4,-10.95 22.24,-15.66 36.17,-14.11zm-881.6 751.81c26.87,-2.35 58.82,-2.6 85.4,-1.98 40.85,-126.72 83.18,-253.11 126.43,-379.03 45.62,-132.84 92.07,-267.23 143.96,-397.74 21.19,-53.32 51.2,-98.05 108.58,-115.2 16.42,-5.81 32.22,-9.93 48.57,-13.56 0.06,-2.87 0.07,-5.89 0.03,-8.9 -11.6,0.5 -23.21,1.15 -34.68,1.58 -48.65,1.82 -97.34,2.4 -146.02,2.4 -59.29,0 -118.49,-3.57 -177.39,-4.53 -0.2,2.56 -0.34,5.14 -0.42,7.62 28.1,4.05 56.22,8.42 83.34,16.85 67.68,21.06 77.02,74.16 63.15,136.58 -14.33,75.59 -39.8,157.52 -62.02,231.91 -27.17,91.01 -55.77,182.14 -86.65,271.98 -9.44,27.43 -45.87,36.88 -66.42,16.32l-4.9 -4.89 -2.62 -6.41c-41.58,-101.64 -80.46,-205.45 -118.95,-308.29 -37,-98.86 -76.92,-202.13 -108.57,-303.54 -26.98,1.95 -59.35,2.23 -86.47,0.34 -25.82,92.29 -54.64,184.35 -84.17,275.38 -32.07,98.85 -65.54,199.85 -104.31,296.26l-2.62 6.5 -4.95 4.97c-19.09,19.14 -51.74,18.54 -64.68,-7.33l-1.14 -2.3 -0.8 -2.45c-55.1,-169.38 -107.04,-343.61 -152.81,-515.72l-0.28 -1.03 -0.2 -1.06c-7.02,-35.04 9.16,-71.65 43.59,-84.89l1.44 -0.55 1.47 -0.42c21.38,-6.12 42.74,-11.87 64.37,-16.81 0.17,-2.74 0.26,-5.66 0.26,-8.55 -70.31,1.83 -139.91,4.06 -210.62,4.06 -74.18,0 -148.09,-3.83 -222.01,-4.62 -0.16,2.68 -0.27,5.46 -0.33,8.18 23.39,3.71 45.23,8.31 69.01,16.85 50.54,18.14 75.73,70.05 93.67,117.33 45.55,129.06 86.46,261.25 126.11,391.83 37.49,123.42 77.52,253.27 106.35,379.89 25.41,-1.8 54.23,-1.48 79.44,-0.08 27.17,-92.3 60.44,-185.16 92.43,-275.43 37.77,-106.62 76.68,-212.9 116.4,-318.82l2.62 -6.98 5.28 -5.27c15.02,-15.03 42.7,-17.08 58.19,-1.58l4.66 4.66 2.62 6.06c42.87,99.54 80.16,207.56 116.78,309.71 33.96,94.77 70.56,193.67 99.88,290.7zm-723.12 213.72c-0.15,-4.05 -0.66,-8.97 -1.42,-14.04 -52.02,17.04 -112.31,24.75 -163.35,23.59 -113.98,0.01 -219.73,-53.27 -319.65,-103.61 -54.57,-27.48 -124.54,-66.93 -182.58,-83.25l-98.17 -27.59 94.8 -37.56c73.04,-28.94 147.3,-73.59 199.25,-133.34 76.14,-87.56 105.76,-204.43 105.76,-318.44 0,-278.25 -192.34,-458.87 -468.4,-458.87 -162.81,0 -334.08,65.22 -432.15,199.96 -58.79,80.76 -82.23,180.78 -82.23,279.53 0,154.89 52.87,301.98 184.81,391.89 69.91,47.64 150.48,69.81 232.47,86.54 49.12,7.5 102.45,33.17 143.39,60.93 91.4,61.97 175.95,134.22 272.11,188.91 57.87,32.92 126.86,55.77 193.94,55.77 108.37,0 235.63,-42 321.42,-110.42zm-890.85 -1134.73c270.12,0 351.66,271.95 351.66,496.01 0,95.2 -14.31,203.56 -58.82,288.94 -39.41,75.57 -102.84,130.93 -191.33,130.93 -283.78,0 -383.38,-261.91 -383.38,-507.11 0,-183.08 59.14,-408.77 281.87,-408.77zm-1280.32 583.76c39.95,-2.81 82.36,-1.63 122.4,-1.63 47.98,0 97.63,-0.88 145.47,1.59 20.09,0.43 39.66,12.03 48.72,30.15l0.41 0.83 0.37 0.86c23.51,54.26 56.57,138.75 66.9,197.03 8.43,27.22 -6.08,55.46 -30.02,69.83l-1.22 0.7c-19.5,10.64 -47.35,17.01 -72.4,21.69 0.05,2.3 0.14,4.7 0.29,7.07 72.83,-0.86 145.86,-4.59 218.99,-4.59 50.03,0 99.99,0.83 149.99,2.4 19.64,0.62 39.45,1.53 59.2,2.02 0.27,-2.25 0.51,-4.54 0.7,-6.78 -122.21,-21.53 -137.94,-52.87 -190.84,-178.24 -44.59,-105.66 -85.19,-214.43 -125.86,-321.7 -39.87,-105.18 -79.08,-210.61 -118.9,-315.81 -9.75,-25.76 -17.33,-52.64 -24.97,-79.32 -19.04,0.51 -38.25,0.31 -57.03,0.31 -17.51,0 -35.27,0.12 -52.94,-0.31 -8.65,36.32 -22.76,77.39 -35.4,107.89 -32.25,93.73 -68.31,187.3 -104.04,279.75 -45.09,116.71 -91.33,233.56 -140.82,348.47 -48.37,112.27 -80.58,138.96 -189.04,158.94 -0.07,2.25 -0.09,4.55 -0.08,6.85 55.58,-1.03 111.27,-4.47 167.01,-4.47 45.95,0 91.82,0.9 137.74,2.41 17.45,0.56 35.09,1.42 52.68,1.92 0.18,-2.29 0.33,-4.63 0.44,-6.91 -19.84,-3.49 -39.63,-7.3 -59.24,-11.98 -48.29,-11.5 -72.46,-35.86 -72.46,-85.84 0,-41.47 39.85,-142.57 54.24,-184.14l0.73 -2.12 1 -2c8.69,-17.4 27.96,-33.9 47.98,-34.87zm138.78 -414.56l21.52 0 8.5 22.03c37.32,96.71 72.78,195.78 106.69,293.78l1.89 5.47 0 5.79c0,20.89 -16.2,41.7 -37.67,43.55 -32.35,3.55 -68.96,3.31 -101.44,3.31 -34.04,0 -72.5,1.33 -106.22,-1.73l-2.67 -0.25 -2.6 -0.64c-22.5,-5.66 -32.39,-24.4 -32.39,-45.82l0 -5.71 1.84 -5.4c32.85,-96.4 67.48,-192.24 99.88,-288.8l2.13 -6.36 4.38 -5.11c9.4,-10.95 22.24,-15.66 36.16,-14.11z"/>
   </g>
   <path class="fil9" d="M10142.07 18842.16c5.26,-0.07 10.98,-0.37 16.22,-0.83 6.53,-77.9 15.8,-160.5 31.78,-237.23 -52.54,10.47 -113.99,10.46 -162.85,10.46l-564.67 0c-44.45,0 -92.4,-3.57 -135.91,-15.37 -6.74,78.9 -16.91,162.37 -30.46,240.32 5.35,1.53 11.34,2.95 16.86,4.02 14.83,-41.3 30.97,-82.7 50.5,-121.76 22.21,-44.39 50.54,-72.87 101.62,-76.07l1.04 -0.05c49.18,-1.58 110.82,-3.62 159.48,1.69 23.6,1.86 41.02,25.83 41.02,48.58 0,222.37 4.18,449.07 -6.39,671.01 -3.25,68.42 -16.52,113.91 -90.36,130.32 -29.84,6.63 -61.85,11.07 -92.83,15.17 -0.1,1.8 -0.16,3.66 -0.16,5.5 84.89,-0.71 170.03,-4.65 255.24,-4.65 85.8,0 171.51,3.95 257.08,4.65 0.23,-2.05 0.42,-4.15 0.56,-6.2 -37.58,-4.98 -84.51,-10.75 -113.55,-22.53 -43.74,-17.73 -55.24,-52.32 -62.26,-94.44l-0.27 -1.55 -0.11 -1.58c-2.79,-37.65 -2.68,-77.1 -3.02,-114.88 -0.52,-60.72 -0.42,-121.47 -0.24,-182.19 0.4,-134.99 1.58,-269.99 1.58,-404.97 0,-17.28 11.53,-35.78 27,-43.5l6.49 -3.23 7.24 -0.34c56.26,-2.68 118.07,-3.02 173.74,1.63 46.48,2.57 72.95,26.95 88.65,70.16l0.36 0.98 0.3 1c12.41,41.86 20.28,83.19 26.32,125.88zm4008.94 347.58c39.95,-2.81 82.37,-1.63 122.41,-1.63 47.97,0 97.63,-0.88 145.46,1.59 20.09,0.43 39.67,12.03 48.72,30.15l0.41 0.83 0.37 0.86c23.52,54.26 56.58,138.75 66.91,197.03 8.42,27.22 -6.08,55.46 -30.03,69.83l-1.22 0.7c-19.49,10.64 -47.35,17.01 -72.4,21.69 0.05,2.3 0.15,4.7 0.29,7.07 72.83,-0.86 145.86,-4.59 219,-4.59 50.02,0 99.99,0.83 149.98,2.4 19.64,0.62 39.46,1.53 59.2,2.02 0.28,-2.25 0.52,-4.54 0.71,-6.78 -122.21,-21.53 -137.95,-52.87 -190.84,-178.24 -44.6,-105.66 -85.2,-214.43 -125.86,-321.7 -39.87,-105.18 -79.08,-210.61 -118.9,-315.81 -9.75,-25.76 -17.34,-52.64 -24.98,-79.32 -19.04,0.51 -38.25,0.31 -57.03,0.31 -17.5,0 -35.26,0.12 -52.93,-0.31 -8.65,36.32 -22.77,77.39 -35.41,107.89 -32.24,93.73 -68.3,187.3 -104.03,279.75 -45.09,116.71 -91.34,233.56 -140.83,348.47 -48.36,112.27 -80.58,138.96 -189.03,158.94 -0.07,2.25 -0.1,4.55 -0.09,6.85 55.58,-1.03 111.27,-4.47 167.02,-4.47 45.94,0 91.82,0.9 137.74,2.41 17.44,0.56 35.09,1.42 52.67,1.92 0.19,-2.29 0.34,-4.63 0.45,-6.91 -19.85,-3.49 -39.64,-7.3 -59.24,-11.98 -48.3,-11.5 -72.47,-35.86 -72.47,-85.84 0,-41.47 39.85,-142.57 54.24,-184.14l0.74 -2.12 0.99 -2c8.7,-17.4 27.97,-33.9 47.98,-34.87zm138.79 -414.56l21.51 0 8.51 22.03c37.32,96.71 72.77,195.78 106.68,293.78l1.9 5.47 0 5.79c0,20.89 -16.2,41.7 -37.68,43.55 -32.34,3.55 -68.96,3.31 -101.44,3.31 -34.04,0 -72.5,1.33 -106.22,-1.73l-2.67 -0.25 -2.6 -0.64c-22.49,-5.66 -32.38,-24.4 -32.38,-45.82l0 -5.71 1.84 -5.4c32.84,-96.4 67.48,-192.24 99.87,-288.8l2.14 -6.36 4.37 -5.11c9.4,-10.95 22.24,-15.66 36.17,-14.11zm-881.6 751.81c26.87,-2.35 58.82,-2.6 85.4,-1.98 40.85,-126.72 83.18,-253.11 126.43,-379.03 45.62,-132.84 92.07,-267.23 143.96,-397.74 21.19,-53.32 51.2,-98.05 108.58,-115.2 16.42,-5.81 32.22,-9.93 48.57,-13.56 0.06,-2.87 0.07,-5.89 0.03,-8.9 -11.6,0.5 -23.21,1.15 -34.68,1.58 -48.65,1.82 -97.34,2.4 -146.02,2.4 -59.29,0 -118.49,-3.57 -177.39,-4.53 -0.2,2.56 -0.34,5.14 -0.42,7.62 28.1,4.05 56.22,8.42 83.34,16.85 67.68,21.06 77.02,74.16 63.15,136.58 -14.33,75.59 -39.8,157.52 -62.02,231.91 -27.17,91.01 -55.77,182.14 -86.65,271.98 -9.44,27.43 -45.87,36.88 -66.42,16.32l-4.9 -4.89 -2.62 -6.41c-41.58,-101.64 -80.46,-205.45 -118.95,-308.29 -37,-98.86 -76.92,-202.13 -108.57,-303.54 -26.98,1.95 -59.35,2.23 -86.47,0.34 -25.82,92.29 -54.64,184.35 -84.17,275.38 -32.07,98.85 -65.54,199.85 -104.31,296.26l-2.62 6.5 -4.95 4.97c-19.09,19.14 -51.74,18.54 -64.68,-7.33l-1.14 -2.3 -0.8 -2.45c-55.1,-169.38 -107.04,-343.61 -152.81,-515.72l-0.28 -1.03 -0.2 -1.06c-7.02,-35.04 9.16,-71.65 43.59,-84.89l1.44 -0.55 1.47 -0.42c21.38,-6.12 42.74,-11.87 64.37,-16.81 0.17,-2.74 0.26,-5.66 0.26,-8.55 -70.31,1.83 -139.91,4.06 -210.62,4.06 -74.18,0 -148.09,-3.83 -222.01,-4.62 -0.16,2.68 -0.27,5.46 -0.33,8.18 23.39,3.71 45.23,8.31 69.01,16.85 50.54,18.14 75.73,70.05 93.67,117.33 45.55,129.06 86.46,261.25 126.11,391.83 37.49,123.42 77.52,253.27 106.35,379.89 25.41,-1.8 54.23,-1.48 79.44,-0.08 27.17,-92.3 60.44,-185.16 92.43,-275.43 37.77,-106.62 76.68,-212.9 116.4,-318.82l2.62 -6.98 5.28 -5.27c15.02,-15.03 42.7,-17.08 58.19,-1.58l4.66 4.66 2.62 6.06c42.87,99.54 80.16,207.56 116.78,309.71 33.96,94.77 70.56,193.67 99.88,290.7zm-723.12 213.72c-0.15,-4.05 -0.66,-8.97 -1.42,-14.04 -52.02,17.04 -112.31,24.75 -163.35,23.59 -113.98,0.01 -219.73,-53.27 -319.65,-103.61 -54.57,-27.48 -124.54,-66.93 -182.58,-83.25l-98.17 -27.59 94.8 -37.56c73.04,-28.94 147.3,-73.59 199.25,-133.34 76.14,-87.56 105.76,-204.43 105.76,-318.44 0,-278.25 -192.34,-458.87 -468.4,-458.87 -162.81,0 -334.08,65.22 -432.15,199.96 -58.79,80.76 -82.23,180.78 -82.23,279.53 0,154.89 52.87,301.98 184.81,391.89 69.91,47.64 150.48,69.81 232.47,86.54 49.12,7.5 102.45,33.17 143.39,60.93 91.4,61.97 175.95,134.22 272.11,188.91 57.87,32.92 126.86,55.77 193.94,55.77 108.37,0 235.63,-42 321.42,-110.42zm-890.85 -1134.73c270.12,0 351.66,271.95 351.66,496.01 0,95.2 -14.31,203.56 -58.82,288.94 -39.41,75.57 -102.84,130.93 -191.33,130.93 -283.78,0 -383.38,-261.91 -383.38,-507.11 0,-183.08 59.14,-408.77 281.87,-408.77zm-1280.32 583.76c39.95,-2.81 82.36,-1.63 122.4,-1.63 47.98,0 97.63,-0.88 145.47,1.59 20.09,0.43 39.66,12.03 48.72,30.15l0.41 0.83 0.37 0.86c23.51,54.26 56.57,138.75 66.9,197.03 8.43,27.22 -6.08,55.46 -30.02,69.83l-1.22 0.7c-19.5,10.64 -47.35,17.01 -72.4,21.69 0.05,2.3 0.14,4.7 0.29,7.07 72.83,-0.86 145.86,-4.59 218.99,-4.59 50.03,0 99.99,0.83 149.99,2.4 19.64,0.62 39.45,1.53 59.2,2.02 0.27,-2.25 0.51,-4.54 0.7,-6.78 -122.21,-21.53 -137.94,-52.87 -190.84,-178.24 -44.59,-105.66 -85.19,-214.43 -125.86,-321.7 -39.87,-105.18 -79.08,-210.61 -118.9,-315.81 -9.75,-25.76 -17.33,-52.64 -24.97,-79.32 -19.04,0.51 -38.25,0.31 -57.03,0.31 -17.51,0 -35.27,0.12 -52.94,-0.31 -8.65,36.32 -22.76,77.39 -35.4,107.89 -32.25,93.73 -68.31,187.3 -104.04,279.75 -45.09,116.71 -91.33,233.56 -140.82,348.47 -48.37,112.27 -80.58,138.96 -189.04,158.94 -0.07,2.25 -0.09,4.55 -0.08,6.85 55.58,-1.03 111.27,-4.47 167.01,-4.47 45.95,0 91.82,0.9 137.74,2.41 17.45,0.56 35.09,1.42 52.68,1.92 0.18,-2.29 0.33,-4.63 0.44,-6.91 -19.84,-3.49 -39.63,-7.3 -59.24,-11.98 -48.29,-11.5 -72.46,-35.86 -72.46,-85.84 0,-41.47 39.85,-142.57 54.24,-184.14l0.73 -2.12 1 -2c8.69,-17.4 27.96,-33.9 47.98,-34.87zm138.78 -414.56l21.52 0 8.5 22.03c37.32,96.71 72.78,195.78 106.69,293.78l1.89 5.47 0 5.79c0,20.89 -16.2,41.7 -37.67,43.55 -32.35,3.55 -68.96,3.31 -101.44,3.31 -34.04,0 -72.5,1.33 -106.22,-1.73l-2.67 -0.25 -2.6 -0.64c-22.5,-5.66 -32.39,-24.4 -32.39,-45.82l0 -5.71 1.84 -5.4c32.85,-96.4 67.48,-192.24 99.88,-288.8l2.13 -6.36 4.38 -5.11c9.4,-10.95 22.24,-15.66 36.16,-14.11z"/>
   <path class="fil10" d="M7569.59 15885.03l-194.77 137.48 -829.48 -808.86 -633.57 946.33c-81.34,119.16 -122.58,216.55 -124.88,295.59 -2.28,84.79 26.36,176.45 83.64,274.98l991.02 1074.65c40.11,66.44 59.58,139.77 59.58,217.68 0,119.15 -51.56,238.3 -156.96,359.75 -143.21,164.98 -349.43,249.76 -617.53,254.34 -170.7,2.29 -328.81,-43.54 -476.6,-137.48 -163.84,-105.41 -245.18,-240.59 -245.18,-405.58 0,-226.85 79.05,-339.12 238.3,-339.12 71.03,0 124.88,53.85 160.4,160.4 51.55,-120.3 53.84,-226.86 6.87,-318.51 -68.74,-105.4 -147.79,-170.71 -234.87,-198.2 34.38,-60.72 46.98,-128.32 40.11,-205.07 -6.88,-82.5 -48.12,-151.25 -123.74,-207.38 -75.62,-56.14 -155.82,-85.92 -238.31,-90.51 -33.22,-2.28 -64.15,3.44 -90.51,16.04 100.83,140.92 153.54,271.53 158.11,389.54 1.15,76.76 -22.91,191.33 -72.17,346 -50.42,154.66 -74.47,274.96 -72.18,362.03 3.43,291 134.04,528.17 388.39,711.48 236.01,168.41 501.8,245.18 799.69,232.57 265.8,-11.46 514.41,-122.59 744.7,-332.25 218.82,-199.35 328.81,-426.19 328.81,-678.25 0,-112.27 -19.48,-213.1 -60.72,-302.46l-16.05 -36.66 -906.23 -989.88c-11.47,-11.45 -29.79,-36.65 -53.86,-74.46 -11.44,-33.24 -17.18,-65.3 -17.18,-93.96 0,-42.39 12.61,-84.78 36.66,-127.17l178.73 -245.17 949.78 899.36 0 -1087.25zm5972.98 1172.88c0,-97.79 -96.58,-168.2 -240.13,-234.09 -178.65,-81.99 -359.51,-127.66 -602.94,-140.89 -207.46,-8.39 -422.16,-32.5 -623.43,-56.97l-74.63 -9.07 -70.11 -15.41c-26.54,-5.83 -52.65,-12.02 -78.37,-18.54 -25.73,6.52 -51.85,12.71 -78.37,18.54l-70.13 15.41 -74.63 9.07c-201.27,24.47 -415.96,48.58 -623.4,56.97 -243.45,13.23 -441.43,58.9 -620.08,140.89 -143.55,65.89 -240.13,136.3 -240.13,234.09l0 36.33 2775.02 0 0 416.36 -323.88 0 -811.46 0 -811.45 0 -1433.31 0 0 -452.69c0,-204.23 149.78,-383.2 445.54,-536.91 276.81,-146.33 606.69,-230.55 987.77,-252.65 100.49,-4.22 244.56,-20.01 434.17,-46.33 117.53,-29.48 244.57,-88.43 377.28,-178.97 132.72,90.54 259.74,149.49 377.28,178.97 189.6,26.32 333.69,42.11 434.18,46.33 381.06,22.1 710.95,106.32 987.76,252.65 295.76,153.71 445.54,332.68 445.54,536.91l0 139.71 0 312.98 0 320.59 138.03 0 479.79 0 0 -677.97c0,-133.7 -56.85,-209.5 -169.49,-225.29 190.55,-64.22 328.47,-144.22 412.68,-241.08 76.86,-88.42 144.22,-232.66 204.23,-434.79l0 2705.58c-140.02,-98.95 -238.34,-196.21 -296.87,-290.56 -49.9,-80.41 -101.07,-208.44 -150.55,-385.31l-479.79 0 -603.69 0 -2671.21 0 -1535.68 0 -222.8 0c0,191.61 -65.27,351.62 -194.76,481.12 -129.49,129.49 -289.51,194.75 -481.11,194.75 -188.44,0 -346.09,-65.53 -472.69,-195.8 -127.1,-130.8 -181.77,-210.67 -181.77,-400.17 0,107.38 37.56,128.56 129.13,225.41 91.59,96.85 190.55,145.28 296.88,145.28 135.81,0 245.04,-41.33 327.41,-124.23 81.85,-82.38 123.18,-190.55 123.18,-326.36l-883.33 0 0 -450.58c0,-446.37 391.42,-693.87 883.33,-733.76 66.12,-5.36 160.01,-22.11 281.08,-62.12 49.48,-34.74 106.33,-89.48 172.65,-163.18l0 959.06 222.8 0 1535.68 0 2650.34 0 0 -320.59 0 -312.98c0,-47.16 -1.56,-93.19 -1.56,-139.71zm1259.79 -2685.45c146.48,0 265.23,118.75 265.23,265.24 0,146.48 -118.75,265.23 -265.23,265.23 -146.49,0 -265.24,-118.75 -265.24,-265.23 0,-146.49 118.75,-265.24 265.24,-265.24zm0 917.49c146.48,0 265.23,118.74 265.23,265.23 0,146.49 -118.75,265.23 -265.23,265.23 -146.49,0 -265.24,-118.74 -265.24,-265.23 0,-146.49 118.75,-265.23 265.24,-265.23zm-3032.27 -97.1c142.78,0 258.54,115.76 258.54,258.54 0,40.72 -9.44,79.24 -26.21,113.5 -66.14,-45.26 -146.13,-71.76 -232.33,-71.76 -86.19,0 -166.18,26.5 -232.33,71.76 -16.77,-34.26 -26.2,-72.78 -26.2,-113.5 0,-142.78 115.76,-258.54 258.53,-258.54zm0 400.42c227.5,0 411.92,184.42 411.92,411.91 0,38.33 -5.26,75.41 -15.04,110.62 -46.52,-7.96 -102.8,-20.36 -169.1,-36.94 -65.27,-29.47 -135.8,-88.43 -209.5,-178.97 -73.69,90.54 -144.22,149.5 -209.49,178.97 -83.91,20.98 -151.77,35.28 -204.11,42.34 -10.78,-36.8 -16.59,-75.73 -16.59,-116.02 0,-227.49 184.42,-411.91 411.91,-411.91zm-3088.51 2237.92l0 -283.19c-207.4,0 -458.03,94.75 -458.03,283.19l458.03 0z"/>
   <g>
    <path class="fil2" d="M7502.23 16120.27l-102.11 72.06 -802.1 -782.15 -565.03 843.96c-41.68,61.05 -104.79,163.67 -106.94,240.24 -2.03,72.67 28.83,147.77 64.24,210.64l990.19 1073.77 5.41 8.96c49.92,82.69 74.44,174.56 74.44,271.05 0,163.61 -77.35,306.6 -182.24,427.45 -178.86,206.07 -427.33,285.73 -693.91,289.91 -192.73,3.01 -371.58,-49.91 -533.89,-153.75 -97.92,-62.65 -176.51,-139.82 -227.52,-232.35 58.73,108.58 146.12,201.86 258.6,282.54 219.79,157.66 465.31,224.82 735.09,213.31 262.89,-11.23 487.4,-130.42 679.56,-305.42 177.35,-161.51 295.08,-357.89 295.08,-601.89 0,-89.02 -13.69,-177.87 -51.22,-259.18l-0.84 -1.87 -9.17 -20.96 -893.38 -975.83c-24.52,-25.14 -47.42,-60.82 -66.09,-90.17l-6.55 -10.28 -3.98 -11.54c-14.06,-40.8 -22.82,-84.33 -22.82,-127.59 0,-63.41 19.01,-123.31 50.13,-178.14l2.9 -5.12 251.38 -344.83 860.77 815.07 0 -647.89zm-2094.63 2240.09c-32.38,-68.77 -50.11,-145.5 -50.11,-230.53 0,-106.5 15.49,-224.79 78.23,-314.03 62.32,-88.64 156.36,-128.38 263.36,-128.38 31.52,0 59.97,5.7 85.6,15.92 -2.3,-6.42 -4.96,-12.8 -8.01,-19.12 -42.68,-64.25 -100.89,-127.52 -176.29,-151.33l-121.61 -38.39 62.83 -110.98c25.61,-45.24 31.52,-93.96 27.08,-145.31 -5.01,-58.17 -36.28,-99.1 -82.39,-133.33 -25.29,-18.77 -51.98,-34.45 -80.14,-46.25 41.84,86.46 70.5,179.06 74.2,274.38l0.07 2.47c1.77,119.36 -40.77,266.32 -77.15,379.21 -30.96,96.1 -68.75,227 -67.21,328.79 1.78,117.79 26.34,222.87 71.54,316.88zm6647.11 -1809.49l69.74 8.48c204.47,24.85 410.12,46.46 615.92,56.33 229.78,11.02 432.25,54.35 641.07,150.2 135.83,62.33 300.33,157.64 300.33,327.95 0,46.58 1.57,93.13 1.57,139.71l0 736.85 -4615.39 0 0 -821.81c-3.33,2.43 -6.67,4.82 -10.02,7.18l-12.47 8.76 -14.48 4.78c-97.41,32.19 -202.58,58.67 -305.13,67 -369.09,29.92 -788.4,201.09 -788.4,630.81l0 347.3 883.33 0 0 103.28c0,151.83 -45.19,290.45 -153.19,399.16 -92.9,93.5 -208.78,140.31 -335.84,151.84 51.26,14.55 105.75,21.59 163.61,21.59 159.65,0 294.96,-51.39 408.08,-164.5 113.12,-113.13 164.51,-248.44 164.51,-408.09l0 -103.28 5694.8 0 21.11 75.46c31.63,113.05 76.59,258.33 138.85,358.67 28.07,45.25 64.98,88.12 105.83,127.8l0 -2013.94c-7.47,9.69 -15.13,19.08 -23.01,28.13 -71.94,82.76 -168.15,146.18 -270.1,195.59 35.33,55.38 52.25,125.31 52.25,203.02l0 781.25 -824.38 0 0 -876.56c0,-210.98 -225.4,-359.07 -390.2,-445.42 -291.89,-152.96 -618.15,-223.12 -945.46,-241.01 -147.2,-8.05 -296.78,-26.89 -442.74,-47.15l-5.52 -0.77 -5.4 -1.35c-124.27,-31.17 -243.1,-87.67 -352.16,-155.8 -109.06,68.13 -227.89,124.63 -352.16,155.8l-5.41 1.35 -5.51 0.77c-145.97,20.26 -295.53,39.1 -442.74,47.15 -327.3,17.88 -653.57,88.04 -945.46,241.01 -164.8,86.35 -390.2,234.44 -390.2,445.42l0 349.4 3173.53 0 0 -209.79 -2775.01 0 0 -139.61c0,-170.31 164.51,-265.61 300.32,-327.95 209.83,-96.31 428.48,-139.18 658.22,-150.2 205.79,-9.87 411.43,-31.48 615.89,-56.33l69.74 -8.48 65.32 -14.35c25.14,-5.52 50.2,-11.45 75.14,-17.78l25.39 -6.43 25.4 6.43c24.94,6.34 50,12.26 75.13,17.79l65.3 14.34zm-3233.93 1419.52l-664.59 0 0 -103.28c0,-275.91 331.56,-386.47 561.31,-386.47l103.28 0 0 489.75zm6017.5 -3458.73c-89.48,0 -161.96,72.48 -161.96,161.96 0,89.48 72.48,161.95 161.96,161.95 89.47,0 161.95,-72.48 161.95,-161.95 0,-89.48 -72.47,-161.96 -161.95,-161.96zm0 917.49c-89.48,0 -161.96,72.47 -161.96,161.95 0,89.48 72.48,161.95 161.96,161.95 89.48,0 161.95,-72.47 161.95,-161.95 0,-89.48 -72.47,-161.95 -161.95,-161.95zm-3182.51 18.92c48.36,-14.72 98.93,-22.3 150.24,-22.3 51.32,0 101.89,7.58 150.25,22.3 -17.37,-66.76 -78.04,-116.01 -150.25,-116.01 -72.21,0 -132.87,49.26 -150.24,116.01zm458.61 580.01c-6.82,-164.45 -142.25,-295.61 -308.37,-295.61 -168.95,0 -306.16,135.69 -308.59,304.06 27.76,-6.06 55.39,-12.76 82.5,-19.5 62.15,-30.89 121.86,-94.32 164.27,-146.42l80.1 -98.41 80.11 98.41c42.4,52.1 102.1,115.53 164.26,146.42 15.18,3.77 30.43,7.47 45.72,11.05z"/>
    <path class="fil3" d="M7430.39 16048.43l-102.11 72.06 -802.1 -782.15 -565.03 843.96c-41.68,61.05 -104.79,163.67 -106.94,240.24 -2.03,72.67 28.83,147.77 64.24,210.64l990.19 1073.77 5.41 8.96c49.92,82.69 74.44,174.56 74.44,271.05 0,163.61 -77.35,306.6 -182.24,427.45 -178.86,206.07 -427.33,285.73 -693.91,289.91 -192.73,3.01 -371.58,-49.91 -533.89,-153.75 -97.92,-62.65 -176.51,-139.82 -227.52,-232.35 58.73,108.58 146.12,201.86 258.6,282.54 219.79,157.66 465.31,224.82 735.09,213.31 262.89,-11.23 487.4,-130.42 679.56,-305.42 177.35,-161.51 295.08,-357.89 295.08,-601.89 0,-89.02 -13.69,-177.87 -51.22,-259.18l-0.84 -1.87 -9.17 -20.96 -893.38 -975.83c-24.52,-25.14 -47.42,-60.82 -66.09,-90.17l-6.55 -10.28 -3.98 -11.54c-14.06,-40.8 -22.82,-84.33 -22.82,-127.59 0,-63.41 19.01,-123.31 50.13,-178.14l2.9 -5.12 251.38 -344.83 860.77 815.07 0 -647.89zm-2094.63 2240.09c-32.38,-68.77 -50.11,-145.5 -50.11,-230.53 0,-106.5 15.49,-224.79 78.23,-314.03 62.32,-88.64 156.36,-128.38 263.36,-128.38 31.52,0 59.97,5.7 85.6,15.92 -2.3,-6.42 -4.96,-12.8 -8.01,-19.12 -42.68,-64.25 -100.89,-127.52 -176.29,-151.33l-121.61 -38.39 62.83 -110.98c25.61,-45.24 31.52,-93.96 27.08,-145.31 -5.01,-58.17 -36.28,-99.1 -82.39,-133.33 -25.29,-18.77 -51.98,-34.45 -80.14,-46.25 41.84,86.46 70.5,179.06 74.2,274.38l0.07 2.47c1.77,119.36 -40.77,266.32 -77.15,379.21 -30.96,96.1 -68.75,227 -67.21,328.79 1.78,117.79 26.34,222.87 71.54,316.88zm6647.11 -1809.49l69.74 8.48c204.47,24.85 410.12,46.46 615.92,56.33 229.78,11.02 432.25,54.35 641.07,150.2 135.83,62.33 300.33,157.64 300.33,327.95 0,46.58 1.57,93.13 1.57,139.71l0 736.85 -4615.39 0 0 -821.81c-3.33,2.43 -6.67,4.82 -10.02,7.18l-12.47 8.76 -14.48 4.78c-97.41,32.19 -202.58,58.67 -305.13,67 -369.09,29.92 -788.4,201.09 -788.4,630.81l0 347.3 883.33 0 0 103.28c0,151.83 -45.19,290.45 -153.19,399.16 -92.9,93.5 -208.78,140.31 -335.84,151.84 51.26,14.55 105.75,21.59 163.61,21.59 159.65,0 294.96,-51.39 408.08,-164.5 113.12,-113.13 164.51,-248.44 164.51,-408.09l0 -103.28 5694.8 0 21.11 75.46c31.63,113.05 76.59,258.33 138.85,358.67 28.07,45.25 64.98,88.12 105.83,127.8l0 -2013.94c-7.47,9.69 -15.13,19.08 -23.01,28.13 -71.94,82.76 -168.15,146.18 -270.1,195.59 35.33,55.38 52.25,125.31 52.25,203.02l0 781.25 -824.38 0 0 -876.56c0,-210.98 -225.4,-359.07 -390.2,-445.42 -291.89,-152.96 -618.15,-223.12 -945.46,-241.01 -147.2,-8.05 -296.78,-26.89 -442.74,-47.15l-5.52 -0.77 -5.4 -1.35c-124.27,-31.17 -243.1,-87.67 -352.16,-155.8 -109.06,68.13 -227.89,124.63 -352.16,155.8l-5.41 1.35 -5.51 0.77c-145.97,20.26 -295.53,39.1 -442.74,47.15 -327.3,17.88 -653.57,88.04 -945.46,241.01 -164.8,86.35 -390.2,234.44 -390.2,445.42l0 349.4 3173.53 0 0 -209.79 -2775.01 0 0 -139.61c0,-170.31 164.51,-265.61 300.32,-327.95 209.83,-96.31 428.48,-139.18 658.22,-150.2 205.79,-9.87 411.43,-31.48 615.89,-56.33l69.74 -8.48 65.32 -14.35c25.14,-5.52 50.2,-11.45 75.14,-17.78l25.39 -6.43 25.4 6.43c24.94,6.34 50,12.26 75.13,17.79l65.3 14.34zm-3233.93 1419.52l-664.59 0 0 -103.28c0,-275.91 331.56,-386.47 561.31,-386.47l103.28 0 0 489.75zm6017.5 -3458.73c-89.48,0 -161.96,72.48 -161.96,161.96 0,89.48 72.48,161.95 161.96,161.95 89.47,0 161.95,-72.48 161.95,-161.95 0,-89.48 -72.47,-161.96 -161.95,-161.96zm0 917.49c-89.48,0 -161.96,72.47 -161.96,161.95 0,89.48 72.48,161.95 161.96,161.95 89.48,0 161.95,-72.47 161.95,-161.95 0,-89.48 -72.47,-161.95 -161.95,-161.95zm-3182.51 18.92c48.36,-14.72 98.93,-22.3 150.24,-22.3 51.32,0 101.89,7.58 150.25,22.3 -17.37,-66.76 -78.04,-116.01 -150.25,-116.01 -72.21,0 -132.87,49.26 -150.24,116.01zm458.61 580.01c-6.82,-164.45 -142.25,-295.61 -308.37,-295.61 -168.95,0 -306.16,135.69 -308.59,304.06 27.76,-6.06 55.39,-12.76 82.5,-19.5 62.15,-30.89 121.86,-94.32 164.27,-146.42l80.1 -98.41 80.11 98.41c42.4,52.1 102.1,115.53 164.26,146.42 15.18,3.77 30.43,7.47 45.72,11.05z"/>
   </g>
   <path class="fil11" d="M7466.31 16084.35l-102.11 72.06 -802.1 -782.15 -565.03 843.96c-41.68,61.05 -104.79,163.67 -106.94,240.24 -2.03,72.67 28.83,147.77 64.24,210.64l990.19 1073.77 5.41 8.96c49.92,82.69 74.44,174.56 74.44,271.05 0,163.61 -77.35,306.6 -182.24,427.45 -178.86,206.07 -427.33,285.73 -693.91,289.91 -192.73,3.01 -371.58,-49.91 -533.89,-153.75 -97.92,-62.65 -176.51,-139.82 -227.52,-232.35 58.73,108.58 146.12,201.86 258.6,282.54 219.79,157.66 465.31,224.82 735.09,213.31 262.89,-11.23 487.4,-130.42 679.56,-305.42 177.35,-161.51 295.08,-357.89 295.08,-601.89 0,-89.02 -13.69,-177.87 -51.22,-259.18l-0.84 -1.87 -9.17 -20.96 -893.38 -975.83c-24.52,-25.14 -47.42,-60.82 -66.09,-90.17l-6.55 -10.28 -3.98 -11.54c-14.06,-40.8 -22.82,-84.33 -22.82,-127.59 0,-63.41 19.01,-123.31 50.13,-178.14l2.9 -5.12 251.38 -344.83 860.77 815.07 0 -647.89zm-2094.63 2240.09c-32.38,-68.77 -50.11,-145.5 -50.11,-230.53 0,-106.5 15.49,-224.79 78.23,-314.03 62.32,-88.64 156.36,-128.38 263.36,-128.38 31.52,0 59.97,5.7 85.6,15.92 -2.3,-6.42 -4.96,-12.8 -8.01,-19.12 -42.68,-64.25 -100.89,-127.52 -176.29,-151.33l-121.61 -38.39 62.83 -110.98c25.61,-45.24 31.52,-93.96 27.08,-145.31 -5.01,-58.17 -36.28,-99.1 -82.39,-133.33 -25.29,-18.77 -51.98,-34.45 -80.14,-46.25 41.84,86.46 70.5,179.06 74.2,274.38l0.07 2.47c1.77,119.36 -40.77,266.32 -77.15,379.21 -30.96,96.1 -68.75,227 -67.21,328.79 1.78,117.79 26.34,222.87 71.54,316.88zm6647.11 -1809.49l69.74 8.48c204.47,24.85 410.12,46.46 615.92,56.33 229.78,11.02 432.25,54.35 641.07,150.2 135.83,62.33 300.33,157.64 300.33,327.95 0,46.58 1.57,93.13 1.57,139.71l0 736.85 -4615.39 0 0 -821.81c-3.33,2.43 -6.67,4.82 -10.02,7.18l-12.47 8.76 -14.48 4.78c-97.41,32.19 -202.58,58.67 -305.13,67 -369.09,29.92 -788.4,201.09 -788.4,630.81l0 347.3 883.33 0 0 103.28c0,151.83 -45.19,290.45 -153.19,399.16 -92.9,93.5 -208.78,140.31 -335.84,151.84 51.26,14.55 105.75,21.59 163.61,21.59 159.65,0 294.96,-51.39 408.08,-164.5 113.12,-113.13 164.51,-248.44 164.51,-408.09l0 -103.28 5694.8 0 21.11 75.46c31.63,113.05 76.59,258.33 138.85,358.67 28.07,45.25 64.98,88.12 105.83,127.8l0 -2013.94c-7.47,9.69 -15.13,19.08 -23.01,28.13 -71.94,82.76 -168.15,146.18 -270.1,195.59 35.33,55.38 52.25,125.31 52.25,203.02l0 781.25 -824.38 0 0 -876.56c0,-210.98 -225.4,-359.07 -390.2,-445.42 -291.89,-152.96 -618.15,-223.12 -945.46,-241.01 -147.2,-8.05 -296.78,-26.89 -442.74,-47.15l-5.52 -0.77 -5.4 -1.35c-124.27,-31.17 -243.1,-87.67 -352.16,-155.8 -109.06,68.13 -227.89,124.63 -352.16,155.8l-5.41 1.35 -5.51 0.77c-145.97,20.26 -295.53,39.1 -442.74,47.15 -327.3,17.88 -653.57,88.04 -945.46,241.01 -164.8,86.35 -390.2,234.44 -390.2,445.42l0 349.4 3173.53 0 0 -209.79 -2775.01 0 0 -139.61c0,-170.31 164.51,-265.61 300.32,-327.95 209.83,-96.31 428.48,-139.18 658.22,-150.2 205.79,-9.87 411.43,-31.48 615.89,-56.33l69.74 -8.48 65.32 -14.35c25.14,-5.52 50.2,-11.45 75.14,-17.78l25.39 -6.43 25.4 6.43c24.94,6.34 50,12.26 75.13,17.79l65.3 14.34zm-3233.93 1419.52l-664.59 0 0 -103.28c0,-275.91 331.56,-386.47 561.31,-386.47l103.28 0 0 489.75zm6017.5 -3458.73c-89.48,0 -161.96,72.48 -161.96,161.96 0,89.48 72.48,161.95 161.96,161.95 89.47,0 161.95,-72.48 161.95,-161.95 0,-89.48 -72.47,-161.96 -161.95,-161.96zm0 917.49c-89.48,0 -161.96,72.47 -161.96,161.95 0,89.48 72.48,161.95 161.96,161.95 89.48,0 161.95,-72.47 161.95,-161.95 0,-89.48 -72.47,-161.95 -161.95,-161.95zm-3182.51 18.92c48.36,-14.72 98.93,-22.3 150.24,-22.3 51.32,0 101.89,7.58 150.25,22.3 -17.37,-66.76 -78.04,-116.01 -150.25,-116.01 -72.21,0 -132.87,49.26 -150.24,116.01zm458.61 580.01c-6.82,-164.45 -142.25,-295.61 -308.37,-295.61 -168.95,0 -306.16,135.69 -308.59,304.06 27.76,-6.06 55.39,-12.76 82.5,-19.5 62.15,-30.89 121.86,-94.32 164.27,-146.42l80.1 -98.41 80.11 98.41c42.4,52.1 102.1,115.53 164.26,146.42 15.18,3.77 30.43,7.47 45.72,11.05z"/>
  </g>
 </g>
</svg>
