<svg width="53" height="53" viewBox="0 0 53 53" fill="none" xmlns="http://www.w3.org/2000/svg">
<path d="M0 26.5C0 11.8645 11.8645 0 26.5 0C41.1355 0 53 11.8645 53 26.5C53 41.1355 41.1355 53 26.5 53C11.8645 53 0 41.1355 0 26.5ZM47.7 26.5C47.7 14.7916 38.2084 5.3 26.5 5.3C14.7916 5.3 5.3 14.7916 5.3 26.5C5.3 38.2084 14.7916 47.7 26.5 47.7C38.2084 47.7 47.7 38.2084 47.7 26.5Z" fill="#FFD3B7"/>
<path d="M0 26.5C0 11.8645 11.8645 0 26.5 0C41.1355 0 53 11.8645 53 26.5C53 41.1355 41.1355 53 26.5 53C11.8645 53 0 41.1355 0 26.5ZM47.7 26.5C47.7 14.7916 38.2084 5.3 26.5 5.3C14.7916 5.3 5.3 14.7916 5.3 26.5C5.3 38.2084 14.7916 47.7 26.5 47.7C38.2084 47.7 47.7 38.2084 47.7 26.5Z" fill="#FF9D5D"/>
<circle cx="26.5" cy="26.5" r="18.5" transform="rotate(-180 26.5 26.5)" fill="#D1512D"/>
<circle cx="26.5" cy="26.5" r="18.5" transform="rotate(-180 26.5 26.5)" fill="#D1512D"/>
<path d="M21.2929 25.2929C20.9024 25.6834 20.9024 26.3166 21.2929 26.7071L27.6569 33.0711C28.0474 33.4616 28.6805 33.4616 29.0711 33.0711C29.4616 32.6805 29.4616 32.0474 29.0711 31.6569L23.4142 26L29.0711 20.3431C29.4616 19.9526 29.4616 19.3195 29.0711 18.9289C28.6805 18.5384 28.0474 18.5384 27.6569 18.9289L21.2929 25.2929ZM25 25H22V27H25V25Z" fill="#F5E8E4"/>
</svg>
