<svg width="10" height="18" viewBox="0 0 10 18" fill="none" xmlns="http://www.w3.org/2000/svg">
<path d="M9.64266 0.101963C9.53481 0.0262318 9.41372 -0.00841713 9.29239 0.00172997C9.17106 0.011879 9.05406 0.0664425 8.95397 0.159565L0.287017 8.25999C0.198455 8.34282 0.126083 8.4534 0.0760965 8.58225C0.0261106 8.7111 0 8.85438 0 8.99983C0 9.14528 0.0261106 9.28857 0.0760965 9.41741C0.126083 9.54626 0.198455 9.65684 0.287017 9.73967L8.95397 17.8401C9.05399 17.9335 9.17103 17.9882 9.29243 17.9983C9.41384 18.0084 9.53496 17.9734 9.6427 17.8972C9.75044 17.821 9.84069 17.7065 9.90367 17.566C9.96665 17.4255 9.99996 17.2645 10 17.1003L10 0.899405C10 0.735113 9.96673 0.573946 9.90374 0.433376C9.84075 0.292807 9.75046 0.178194 9.64266 0.101963Z" fill="#002542"/>
</svg>
